<?xml version="1.0" encoding="UTF-8" standalone="no"?>
<!-- Created with Inkscape (http://www.inkscape.org/) -->

<svg
   version="1.1"
   width="635.26569"
   height="619.88129"
   xml:space="preserve"
   inkscape:version="1.4.2 (ebf0e94, 2025-05-08)"
   sodipodi:docname="brand 3.svg"
   id="svg1"
   xmlns:inkscape="http://www.inkscape.org/namespaces/inkscape"
   xmlns:sodipodi="http://sodipodi.sourceforge.net/DTD/sodipodi-0.dtd"
   xmlns="http://www.w3.org/2000/svg"
   xmlns:svg="http://www.w3.org/2000/svg"><rect
     style="opacity:1;fill:#dfd4c1;fill-rule:evenodd;stroke-width:0.117165;stroke-linecap:round;stroke-linejoin:round;fill-opacity:1"
     id="rect1"
     width="635.26569"
     height="619.88129"
     x="0"
     y="0" /><sodipodi:namedview
     inkscape:zoom="0.70710678"
     inkscape:cx="-11.313709"
     inkscape:cy="453.25545"
     inkscape:window-width="1920"
     inkscape:window-height="1048"
     inkscape:window-x="0"
     inkscape:window-y="0"
     inkscape:window-maximized="1"
     id="namedview1"
     pagecolor="#505050"
     bordercolor="#eeeeee"
     borderopacity="1"
     inkscape:showpageshadow="0"
     inkscape:pageopacity="0"
     inkscape:pagecheckerboard="0"
     inkscape:deskcolor="#505050"
     inkscape:current-layer="svg1" /><defs
     id="defs1"><inkscape:path-effect
       effect="fillet_chamfer"
       id="path-effect65"
       is_visible="true"
       lpeversion="1"
       nodesatellites_param="F,0,0,1,0,9.99991,0,1 @ F,0,0,1,0,0,0,1 @ F,0,0,1,0,0,0,1 @ F,0,0,1,0,0,0,1 | F,0,0,1,0,0,0,1 @ F,0,0,1,0,0,0,1 @ F,0,0,1,0,0,0,1 @ F,0,0,1,0,0,0,1 | F,0,0,1,0,0,0,1 @ F,0,0,1,0,0,0,1 @ F,0,0,1,0,0,0,1 @ F,0,0,1,0,0,0,1"
       radius="0"
       unit="px"
       method="auto"
       mode="F"
       chamfer_steps="1"
       flexible="false"
       use_knot_distance="true"
       apply_no_radius="true"
       apply_with_radius="true"
       only_selected="false"
       hide_knots="false" /><inkscape:path-effect
       effect="fillet_chamfer"
       id="path-effect14"
       is_visible="true"
       lpeversion="1"
       nodesatellites_param="F,0,0,1,0,0,0,1 @ F,0,0,1,0,0,0,1 @ F,0,0,1,0,0,0,1 @ F,0,1,1,0,9.99991,0,1 | F,0,0,1,0,9.99991,0,1 @ F,0,0,1,0,0,0,1 @ F,0,0,1,0,0,0,1 @ F,0,0,1,0,0,0,1"
       radius="0"
       unit="px"
       method="auto"
       mode="F"
       chamfer_steps="1"
       flexible="false"
       use_knot_distance="true"
       apply_no_radius="true"
       apply_with_radius="true"
       only_selected="false"
       hide_knots="false" /><inkscape:path-effect
       effect="fillet_chamfer"
       id="path-effect13"
       is_visible="true"
       lpeversion="1"
       nodesatellites_param="F,0,0,1,0,0,0,1 @ F,0,0,1,0,0,0,1 @ F,0,0,1,0,0,0,1 @ F,0,0,1,0,0,0,1 @ F,0,0,1,0,0,0,1 @ F,0,0,1,0,0,0,1 | F,0,0,1,0,0,0,1 @ F,0,0,1,0,9.99991,0,1 @ F,0,0,1,0,0,0,1 @ F,0,0,1,0,0,0,1"
       radius="0"
       unit="px"
       method="auto"
       mode="F"
       chamfer_steps="1"
       flexible="false"
       use_knot_distance="true"
       apply_no_radius="true"
       apply_with_radius="true"
       only_selected="false"
       hide_knots="false" /><inkscape:path-effect
       effect="fillet_chamfer"
       id="path-effect11"
       is_visible="true"
       lpeversion="1"
       nodesatellites_param="F,0,0,1,0,0,0,1 @ F,0,0,1,0,0,0,1 @ F,0,0,1,0,0,0,1 @ F,0,0,1,0,0,0,1 @ F,0,0,1,0,0,0,1 @ F,0,0,1,0,0,0,1 | F,0,0,1,0,0,0,1 @ F,0,0,1,0,9.99991,0,1 @ F,0,0,1,0,0,0,1 @ F,0,0,1,0,0,0,1"
       radius="0"
       unit="px"
       method="auto"
       mode="F"
       chamfer_steps="1"
       flexible="false"
       use_knot_distance="true"
       apply_no_radius="true"
       apply_with_radius="true"
       only_selected="false"
       hide_knots="false" /><inkscape:path-effect
       effect="fillet_chamfer"
       id="path-effect9"
       is_visible="true"
       lpeversion="1"
       nodesatellites_param="F,0,0,1,0,0,0,1 @ F,0,0,1,0,0,0,1 @ F,0,0,1,0,0,0,1 @ F,0,0,1,0,0,0,1 @ F,0,0,1,0,0,0,1 @ F,0,0,1,0,0,0,1 | F,0,0,1,0,0,0,1 @ F,0,0,1,0,9.99991,0,1 @ F,0,0,1,0,0,0,1 @ F,0,0,1,0,0,0,1"
       radius="0"
       unit="px"
       method="auto"
       mode="F"
       chamfer_steps="1"
       flexible="false"
       use_knot_distance="true"
       apply_no_radius="true"
       apply_with_radius="true"
       only_selected="false"
       hide_knots="false" /><inkscape:path-effect
       effect="fillet_chamfer"
       id="path-effect4"
       is_visible="true"
       lpeversion="1"
       nodesatellites_param="F,0,0,1,0,11.430208,0,1 @ F,0,0,1,0,0,0,1 @ F,0,0,1,0,0,0,1 @ F,0,0,1,0,0,0,1"
       radius="0"
       unit="px"
       method="auto"
       mode="F"
       chamfer_steps="1"
       flexible="false"
       use_knot_distance="true"
       apply_no_radius="true"
       apply_with_radius="true"
       only_selected="false"
       hide_knots="false" /><inkscape:path-effect
       effect="fillet_chamfer"
       id="path-effect3"
       is_visible="true"
       lpeversion="1"
       nodesatellites_param="F,0,0,1,0,0,0,1 @ F,0,0,1,0,11.430208,0,1 @ F,0,0,1,0,0,0,1 @ F,0,0,1,0,0,0,1"
       radius="0"
       unit="px"
       method="auto"
       mode="F"
       chamfer_steps="1"
       flexible="false"
       use_knot_distance="true"
       apply_no_radius="true"
       apply_with_radius="true"
       only_selected="false"
       hide_knots="false" /><inkscape:path-effect
       effect="fillet_chamfer"
       id="path-effect65-1"
       is_visible="true"
       lpeversion="1"
       nodesatellites_param="F,0,0,1,0,9.99991,0,1 @ F,0,0,1,0,0,0,1 @ F,0,0,1,0,0,0,1 @ F,0,0,1,0,0,0,1 | F,0,0,1,0,0,0,1 @ F,0,0,1,0,0,0,1 @ F,0,0,1,0,0,0,1 @ F,0,0,1,0,0,0,1 | F,0,0,1,0,0,0,1 @ F,0,0,1,0,0,0,1 @ F,0,0,1,0,0,0,1 @ F,0,0,1,0,0,0,1"
       radius="0"
       unit="px"
       method="auto"
       mode="F"
       chamfer_steps="1"
       flexible="false"
       use_knot_distance="true"
       apply_no_radius="true"
       apply_with_radius="true"
       only_selected="false"
       hide_knots="false" /><inkscape:path-effect
       effect="fillet_chamfer"
       id="path-effect14-2"
       is_visible="true"
       lpeversion="1"
       nodesatellites_param="F,0,0,1,0,0,0,1 @ F,0,0,1,0,0,0,1 @ F,0,0,1,0,0,0,1 @ F,0,1,1,0,9.99991,0,1 | F,0,0,1,0,9.99991,0,1 @ F,0,0,1,0,0,0,1 @ F,0,0,1,0,0,0,1 @ F,0,0,1,0,0,0,1"
       radius="0"
       unit="px"
       method="auto"
       mode="F"
       chamfer_steps="1"
       flexible="false"
       use_knot_distance="true"
       apply_no_radius="true"
       apply_with_radius="true"
       only_selected="false"
       hide_knots="false" /><inkscape:path-effect
       effect="fillet_chamfer"
       id="path-effect13-7"
       is_visible="true"
       lpeversion="1"
       nodesatellites_param="F,0,0,1,0,0,0,1 @ F,0,0,1,0,0,0,1 @ F,0,0,1,0,0,0,1 @ F,0,0,1,0,0,0,1 @ F,0,0,1,0,0,0,1 @ F,0,0,1,0,0,0,1 | F,0,0,1,0,0,0,1 @ F,0,0,1,0,9.99991,0,1 @ F,0,0,1,0,0,0,1 @ F,0,0,1,0,0,0,1"
       radius="0"
       unit="px"
       method="auto"
       mode="F"
       chamfer_steps="1"
       flexible="false"
       use_knot_distance="true"
       apply_no_radius="true"
       apply_with_radius="true"
       only_selected="false"
       hide_knots="false" /><inkscape:path-effect
       effect="fillet_chamfer"
       id="path-effect11-0"
       is_visible="true"
       lpeversion="1"
       nodesatellites_param="F,0,0,1,0,0,0,1 @ F,0,0,1,0,0,0,1 @ F,0,0,1,0,0,0,1 @ F,0,0,1,0,0,0,1 @ F,0,0,1,0,0,0,1 @ F,0,0,1,0,0,0,1 | F,0,0,1,0,0,0,1 @ F,0,0,1,0,9.99991,0,1 @ F,0,0,1,0,0,0,1 @ F,0,0,1,0,0,0,1"
       radius="0"
       unit="px"
       method="auto"
       mode="F"
       chamfer_steps="1"
       flexible="false"
       use_knot_distance="true"
       apply_no_radius="true"
       apply_with_radius="true"
       only_selected="false"
       hide_knots="false" /><inkscape:path-effect
       effect="fillet_chamfer"
       id="path-effect9-9"
       is_visible="true"
       lpeversion="1"
       nodesatellites_param="F,0,0,1,0,0,0,1 @ F,0,0,1,0,0,0,1 @ F,0,0,1,0,0,0,1 @ F,0,0,1,0,0,0,1 @ F,0,0,1,0,0,0,1 @ F,0,0,1,0,0,0,1 | F,0,0,1,0,0,0,1 @ F,0,0,1,0,9.99991,0,1 @ F,0,0,1,0,0,0,1 @ F,0,0,1,0,0,0,1"
       radius="0"
       unit="px"
       method="auto"
       mode="F"
       chamfer_steps="1"
       flexible="false"
       use_knot_distance="true"
       apply_no_radius="true"
       apply_with_radius="true"
       only_selected="false"
       hide_knots="false" /><inkscape:path-effect
       effect="fillet_chamfer"
       id="path-effect4-3"
       is_visible="true"
       lpeversion="1"
       nodesatellites_param="F,0,0,1,0,11.430208,0,1 @ F,0,0,1,0,0,0,1 @ F,0,0,1,0,0,0,1 @ F,0,0,1,0,0,0,1"
       radius="0"
       unit="px"
       method="auto"
       mode="F"
       chamfer_steps="1"
       flexible="false"
       use_knot_distance="true"
       apply_no_radius="true"
       apply_with_radius="true"
       only_selected="false"
       hide_knots="false" /><inkscape:path-effect
       effect="fillet_chamfer"
       id="path-effect3-6"
       is_visible="true"
       lpeversion="1"
       nodesatellites_param="F,0,0,1,0,0,0,1 @ F,0,0,1,0,11.430208,0,1 @ F,0,0,1,0,0,0,1 @ F,0,0,1,0,0,0,1"
       radius="0"
       unit="px"
       method="auto"
       mode="F"
       chamfer_steps="1"
       flexible="false"
       use_knot_distance="true"
       apply_no_radius="true"
       apply_with_radius="true"
       only_selected="false"
       hide_knots="false" /><inkscape:path-effect
       effect="fillet_chamfer"
       id="path-effect65-8"
       is_visible="true"
       lpeversion="1"
       nodesatellites_param="F,0,0,1,0,9.99991,0,1 @ F,0,0,1,0,0,0,1 @ F,0,0,1,0,0,0,1 @ F,0,0,1,0,0,0,1 | F,0,0,1,0,0,0,1 @ F,0,0,1,0,0,0,1 @ F,0,0,1,0,0,0,1 @ F,0,0,1,0,0,0,1 | F,0,0,1,0,0,0,1 @ F,0,0,1,0,0,0,1 @ F,0,0,1,0,0,0,1 @ F,0,0,1,0,0,0,1"
       radius="0"
       unit="px"
       method="auto"
       mode="F"
       chamfer_steps="1"
       flexible="false"
       use_knot_distance="true"
       apply_no_radius="true"
       apply_with_radius="true"
       only_selected="false"
       hide_knots="false" /><inkscape:path-effect
       effect="fillet_chamfer"
       id="path-effect14-4"
       is_visible="true"
       lpeversion="1"
       nodesatellites_param="F,0,0,1,0,0,0,1 @ F,0,0,1,0,0,0,1 @ F,0,0,1,0,0,0,1 @ F,0,1,1,0,9.99991,0,1 | F,0,0,1,0,9.99991,0,1 @ F,0,0,1,0,0,0,1 @ F,0,0,1,0,0,0,1 @ F,0,0,1,0,0,0,1"
       radius="0"
       unit="px"
       method="auto"
       mode="F"
       chamfer_steps="1"
       flexible="false"
       use_knot_distance="true"
       apply_no_radius="true"
       apply_with_radius="true"
       only_selected="false"
       hide_knots="false" /><inkscape:path-effect
       effect="fillet_chamfer"
       id="path-effect13-5"
       is_visible="true"
       lpeversion="1"
       nodesatellites_param="F,0,0,1,0,0,0,1 @ F,0,0,1,0,0,0,1 @ F,0,0,1,0,0,0,1 @ F,0,0,1,0,0,0,1 @ F,0,0,1,0,0,0,1 @ F,0,0,1,0,0,0,1 | F,0,0,1,0,0,0,1 @ F,0,0,1,0,9.99991,0,1 @ F,0,0,1,0,0,0,1 @ F,0,0,1,0,0,0,1"
       radius="0"
       unit="px"
       method="auto"
       mode="F"
       chamfer_steps="1"
       flexible="false"
       use_knot_distance="true"
       apply_no_radius="true"
       apply_with_radius="true"
       only_selected="false"
       hide_knots="false" /><inkscape:path-effect
       effect="fillet_chamfer"
       id="path-effect11-03"
       is_visible="true"
       lpeversion="1"
       nodesatellites_param="F,0,0,1,0,0,0,1 @ F,0,0,1,0,0,0,1 @ F,0,0,1,0,0,0,1 @ F,0,0,1,0,0,0,1 @ F,0,0,1,0,0,0,1 @ F,0,0,1,0,0,0,1 | F,0,0,1,0,0,0,1 @ F,0,0,1,0,9.99991,0,1 @ F,0,0,1,0,0,0,1 @ F,0,0,1,0,0,0,1"
       radius="0"
       unit="px"
       method="auto"
       mode="F"
       chamfer_steps="1"
       flexible="false"
       use_knot_distance="true"
       apply_no_radius="true"
       apply_with_radius="true"
       only_selected="false"
       hide_knots="false" /><inkscape:path-effect
       effect="fillet_chamfer"
       id="path-effect9-6"
       is_visible="true"
       lpeversion="1"
       nodesatellites_param="F,0,0,1,0,0,0,1 @ F,0,0,1,0,0,0,1 @ F,0,0,1,0,0,0,1 @ F,0,0,1,0,0,0,1 @ F,0,0,1,0,0,0,1 @ F,0,0,1,0,0,0,1 | F,0,0,1,0,0,0,1 @ F,0,0,1,0,9.99991,0,1 @ F,0,0,1,0,0,0,1 @ F,0,0,1,0,0,0,1"
       radius="0"
       unit="px"
       method="auto"
       mode="F"
       chamfer_steps="1"
       flexible="false"
       use_knot_distance="true"
       apply_no_radius="true"
       apply_with_radius="true"
       only_selected="false"
       hide_knots="false" /><inkscape:path-effect
       effect="fillet_chamfer"
       id="path-effect4-1"
       is_visible="true"
       lpeversion="1"
       nodesatellites_param="F,0,0,1,0,11.430208,0,1 @ F,0,0,1,0,0,0,1 @ F,0,0,1,0,0,0,1 @ F,0,0,1,0,0,0,1"
       radius="0"
       unit="px"
       method="auto"
       mode="F"
       chamfer_steps="1"
       flexible="false"
       use_knot_distance="true"
       apply_no_radius="true"
       apply_with_radius="true"
       only_selected="false"
       hide_knots="false" /><inkscape:path-effect
       effect="fillet_chamfer"
       id="path-effect3-0"
       is_visible="true"
       lpeversion="1"
       nodesatellites_param="F,0,0,1,0,0,0,1 @ F,0,0,1,0,11.430208,0,1 @ F,0,0,1,0,0,0,1 @ F,0,0,1,0,0,0,1"
       radius="0"
       unit="px"
       method="auto"
       mode="F"
       chamfer_steps="1"
       flexible="false"
       use_knot_distance="true"
       apply_no_radius="true"
       apply_with_radius="true"
       only_selected="false"
       hide_knots="false" /><clipPath
       clipPathUnits="userSpaceOnUse"
       id="clipPath180"><rect
         style="fill:#ffffff;fill-opacity:1;fill-rule:evenodd;stroke:none;stroke-width:0.500002;stroke-dasharray:none;stroke-opacity:1"
         id="rect181"
         width="944.47827"
         height="531.26898"
         x="2838.5586"
         y="3332.0281" /></clipPath></defs><path
     id="path28"
     style="font-size:25.2221px;line-height:1.25;font-family:'Space Grotesk';-inkscape-font-specification:'Space Grotesk';letter-spacing:0px;direction:rtl;stroke-width:0.999998"
     d="m 137.45984,240.26679 c -3.17201,0 -5.62802,0.86964 -7.36492,2.60652 -1.66145,1.73737 -2.49288,4.11651 -2.49288,7.13765 v 42.44596 0 18.31365 h -20.2285 v 8.4677 h 20.2285 v 20.46018 h 8.93613 v -20.46018 h 20.2285 v -8.4677 h -20.2285 v -18.31365 0 -41.08591 c 0,-2.26557 1.09414,-3.40058 3.28473,-3.40058 h 131.19148 v -7.70364 z m 326.01412,21.71611 c -1.96328,0 -3.62611,0.64273 -4.98571,1.92697 -1.2837,1.28379 -1.92646,2.94654 -1.92646,4.98567 0,1.96381 0.64276,3.5857 1.92646,4.86947 1.3596,1.28402 3.02243,1.92675 4.98571,1.92675 1.96372,0 3.58612,-0.64273 4.86982,-1.92675 1.28414,-1.28377 1.92646,-2.90566 1.92646,-4.86947 0,-2.03913 -0.64232,-3.70188 -1.92646,-4.98567 -1.2837,-1.28424 -2.9061,-1.92697 -4.86982,-1.92697 z m 35.23952,20.16836 v 20.46304 h -20.2285 v 8.46746 h 20.2285 v 20.46043 0 36.96823 c 0,2.26603 -1.09418,3.40059 -3.28469,3.40059 H 364.23724 v 7.70362 h 133.56851 c 3.17196,0 5.62798,-0.86914 7.36487,-2.60651 1.6615,-1.7369 2.49288,-4.11603 2.49288,-7.13718 v -38.32875 0 -20.46043 h 20.2285 v -8.46746 h -20.2285 v -20.46304 z m -269.18647,0.56409 c -4.60707,0 -8.57274,0.79337 -11.89609,2.37937 -3.24744,1.51045 -5.85349,3.55005 -7.81722,6.11832 -1.96375,2.49201 -3.39703,5.28483 -4.30344,8.38153 l 8.38138,2.72008 c 0.90642,-3.62513 2.60739,-6.49633 5.0998,-8.61148 2.4924,-2.19 5.96579,-3.28419 10.42146,-3.28419 4.53164,0 7.93135,1.13244 10.19689,3.39848 2.34107,2.26555 3.51204,5.3639 3.51204,9.29127 v 4.07801 H 224.4299 c -3.9275,0 -7.4772,0.64037 -10.64966,1.92414 -3.17197,1.20869 -5.66572,3.05962 -7.47856,5.55211 -1.81237,2.41691 -2.71787,5.51314 -2.71787,9.28915 0,3.70069 0.9055,6.83494 2.71787,9.40275 1.81284,2.56778 4.30659,4.53159 7.47856,5.89116 3.17246,1.35934 6.68402,2.04007 10.53556,2.04007 3.85203,0 6.98629,-0.53031 9.40281,-1.58767 2.41692,-0.98154 4.30431,-2.22613 5.66349,-3.73659 1.43506,-1.58646 2.56741,-3.09835 3.39836,-4.53348 h 1.36005 v 0.56645 c 0,2.3416 0.75507,4.23078 2.26559,5.66568 1.51053,1.35982 3.51245,2.03794 6.00441,2.03794 h 7.81768 v -7.59004 h -5.09937 c -2.11465,0 -3.17061,-1.13219 -3.17061,-3.39775 v -25.03549 c 0,-6.64627 -1.96373,-11.78256 -5.89122,-15.40771 -3.92705,-3.70069 -9.44098,-5.55211 -16.53998,-5.55211 z m 158.042,0 c -5.3621,0 -10.11828,1.20869 -14.27258,3.62562 -4.15389,2.34112 -7.40267,5.66402 -9.7437,9.96919 -2.3415,4.30492 -3.51202,9.32645 -3.51202,15.06627 v 1.36005 c 0,5.66451 1.17052,10.65015 3.51202,14.95485 2.34103,4.30539 5.62575,7.66631 9.85507,10.08347 4.22977,2.34089 9.14093,3.51132 14.72985,3.51132 4.98482,0 9.06277,-0.79313 12.23475,-2.37913 3.24747,-1.58602 5.8517,-3.54981 7.81545,-5.8907 2.03919,-2.34159 3.62517,-4.68248 4.75798,-7.02361 l -7.7036,-3.73965 c -1.35961,3.02091 -3.32335,5.62742 -5.89122,7.81766 -2.56787,2.19002 -6.22987,3.2842 -10.98786,3.2842 -5.43802,0 -9.96964,-1.66017 -13.59483,-4.98354 -3.62519,-3.39822 -5.55076,-8.08305 -5.77758,-14.04933 h 45.2015 v -4.07824 c 0,-5.58895 -1.13235,-10.45984 -3.3979,-14.61365 -2.26604,-4.15429 -5.40031,-7.32678 -9.40279,-9.51678 -4.00294,-2.26558 -8.61135,-3.398 -13.82254,-3.398 z m -92.95606,0.56645 c -4.38025,0 -7.77726,0.83137 -10.1942,2.49295 -2.41694,1.66134 -4.15565,3.47473 -5.21299,5.43829 h -1.58554 v -6.91263 h -8.72274 v 55.39804 h 8.95048 v -33.30554 c 0,-4.98471 1.28282,-8.79945 3.85065,-11.44327 2.64333,-2.64337 6.00442,-3.96422 10.08283,-3.96422 3.85155,0 6.83535,1.09631 8.95,3.28703 2.19058,2.11469 3.28476,5.02153 3.28476,8.7227 v 36.7033 h 8.94998 v -33.30554 c 0,-4.98471 1.28507,-8.79945 3.85294,-11.44327 2.64377,-2.64337 6.00487,-3.96422 10.08326,-3.96422 3.85158,0 6.83312,1.09631 8.94778,3.28703 2.19013,2.11469 3.28651,5.02153 3.28651,8.7227 v 36.7033 h 8.95047 v -37.49738 c 0,-3.92712 -0.83139,-7.28875 -2.49284,-10.08298 -1.586,-2.87002 -3.77702,-5.06075 -6.57124,-6.57122 -2.79426,-1.51045 -6.0435,-2.26507 -9.74414,-2.26507 -4.68254,0 -8.34456,0.94377 -10.98789,2.83155 -2.56787,1.88823 -4.49343,4.19323 -5.77759,6.91262 h -1.58511 c -1.20869,-2.71939 -3.17196,-5.02439 -5.89122,-6.91262 -2.64329,-1.88778 -6.11893,-2.83155 -10.42416,-2.83155 z m -105.19036,0.7936 c -3.32333,0 -6.0035,0.56645 -8.04273,1.69935 -2.03918,1.13267 -3.55103,2.90781 -4.5329,5.32425 h -1.58558 v -6.79859 h -8.72275 v 55.39804 h 8.95046 v -33.75819 c 0,-4.68247 1.20646,-8.1199 3.62298,-10.31013 2.49239,-2.26604 5.74119,-3.39823 9.74411,-3.39823 h 7.1377 v -8.1565 z m 269.51842,0.22431 v 55.39803 h 8.95046 v -55.39803 z m -71.372,6.34594 c 4.98482,0 9.06501,1.43372 12.23701,4.30328 3.24743,2.87025 5.02253,6.87414 5.32481,12.00971 h -36.026 c 0.75505,-5.13557 2.75697,-9.13946 6.00439,-12.00971 3.24791,-2.86956 7.39954,-4.30328 12.45979,-4.30328 z m -162.80045,23.78901 h 18.35327 v 1.2467 c 0,5.6645 -1.6628,10.08371 -4.98615,13.25573 -3.24747,3.09671 -7.51408,4.64448 -12.80071,4.64448 -3.77656,0 -6.87221,-0.86917 -9.28915,-2.60653 -2.34148,-1.7369 -3.51199,-4.15216 -3.51199,-7.24862 0,-3.09648 1.13235,-5.40218 3.39836,-6.91263 2.34105,-1.58603 5.28666,-2.37913 8.83637,-2.37913 z" /></svg>
