<?xml version="1.0" encoding="UTF-8" standalone="no"?>
<!-- Created with Inkscape (http://www.inkscape.org/) -->

<svg
   version="1.1"
   width="635.26569"
   height="619.88129"
   xml:space="preserve"
   inkscape:version="1.4.2 (ebf0e94, 2025-05-08)"
   sodipodi:docname="brand 4.svg"
   id="svg1"
   xmlns:inkscape="http://www.inkscape.org/namespaces/inkscape"
   xmlns:sodipodi="http://sodipodi.sourceforge.net/DTD/sodipodi-0.dtd"
   xmlns:xlink="http://www.w3.org/1999/xlink"
   xmlns="http://www.w3.org/2000/svg"
   xmlns:svg="http://www.w3.org/2000/svg"><rect
     style="opacity:1;fill:#c9c1df;fill-rule:evenodd;stroke-width:0.117165;stroke-linecap:round;stroke-linejoin:round;fill-opacity:1"
     id="rect1"
     width="635.26569"
     height="619.88129"
     x="0"
     y="0" /><sodipodi:namedview
     inkscape:zoom="0.70710678"
     inkscape:cx="-11.313709"
     inkscape:cy="453.25545"
     inkscape:window-width="1920"
     inkscape:window-height="1048"
     inkscape:window-x="0"
     inkscape:window-y="0"
     inkscape:window-maximized="1"
     id="namedview1"
     pagecolor="#505050"
     bordercolor="#eeeeee"
     borderopacity="1"
     inkscape:showpageshadow="0"
     inkscape:pageopacity="0"
     inkscape:pagecheckerboard="0"
     inkscape:deskcolor="#505050"
     inkscape:current-layer="svg1" /><defs
     id="defs1"><inkscape:path-effect
       effect="fillet_chamfer"
       id="path-effect65"
       is_visible="true"
       lpeversion="1"
       nodesatellites_param="F,0,0,1,0,9.99991,0,1 @ F,0,0,1,0,0,0,1 @ F,0,0,1,0,0,0,1 @ F,0,0,1,0,0,0,1 | F,0,0,1,0,0,0,1 @ F,0,0,1,0,0,0,1 @ F,0,0,1,0,0,0,1 @ F,0,0,1,0,0,0,1 | F,0,0,1,0,0,0,1 @ F,0,0,1,0,0,0,1 @ F,0,0,1,0,0,0,1 @ F,0,0,1,0,0,0,1"
       radius="0"
       unit="px"
       method="auto"
       mode="F"
       chamfer_steps="1"
       flexible="false"
       use_knot_distance="true"
       apply_no_radius="true"
       apply_with_radius="true"
       only_selected="false"
       hide_knots="false" /><inkscape:path-effect
       effect="fillet_chamfer"
       id="path-effect14"
       is_visible="true"
       lpeversion="1"
       nodesatellites_param="F,0,0,1,0,0,0,1 @ F,0,0,1,0,0,0,1 @ F,0,0,1,0,0,0,1 @ F,0,1,1,0,9.99991,0,1 | F,0,0,1,0,9.99991,0,1 @ F,0,0,1,0,0,0,1 @ F,0,0,1,0,0,0,1 @ F,0,0,1,0,0,0,1"
       radius="0"
       unit="px"
       method="auto"
       mode="F"
       chamfer_steps="1"
       flexible="false"
       use_knot_distance="true"
       apply_no_radius="true"
       apply_with_radius="true"
       only_selected="false"
       hide_knots="false" /><inkscape:path-effect
       effect="fillet_chamfer"
       id="path-effect13"
       is_visible="true"
       lpeversion="1"
       nodesatellites_param="F,0,0,1,0,0,0,1 @ F,0,0,1,0,0,0,1 @ F,0,0,1,0,0,0,1 @ F,0,0,1,0,0,0,1 @ F,0,0,1,0,0,0,1 @ F,0,0,1,0,0,0,1 | F,0,0,1,0,0,0,1 @ F,0,0,1,0,9.99991,0,1 @ F,0,0,1,0,0,0,1 @ F,0,0,1,0,0,0,1"
       radius="0"
       unit="px"
       method="auto"
       mode="F"
       chamfer_steps="1"
       flexible="false"
       use_knot_distance="true"
       apply_no_radius="true"
       apply_with_radius="true"
       only_selected="false"
       hide_knots="false" /><inkscape:path-effect
       effect="fillet_chamfer"
       id="path-effect11"
       is_visible="true"
       lpeversion="1"
       nodesatellites_param="F,0,0,1,0,0,0,1 @ F,0,0,1,0,0,0,1 @ F,0,0,1,0,0,0,1 @ F,0,0,1,0,0,0,1 @ F,0,0,1,0,0,0,1 @ F,0,0,1,0,0,0,1 | F,0,0,1,0,0,0,1 @ F,0,0,1,0,9.99991,0,1 @ F,0,0,1,0,0,0,1 @ F,0,0,1,0,0,0,1"
       radius="0"
       unit="px"
       method="auto"
       mode="F"
       chamfer_steps="1"
       flexible="false"
       use_knot_distance="true"
       apply_no_radius="true"
       apply_with_radius="true"
       only_selected="false"
       hide_knots="false" /><inkscape:path-effect
       effect="fillet_chamfer"
       id="path-effect9"
       is_visible="true"
       lpeversion="1"
       nodesatellites_param="F,0,0,1,0,0,0,1 @ F,0,0,1,0,0,0,1 @ F,0,0,1,0,0,0,1 @ F,0,0,1,0,0,0,1 @ F,0,0,1,0,0,0,1 @ F,0,0,1,0,0,0,1 | F,0,0,1,0,0,0,1 @ F,0,0,1,0,9.99991,0,1 @ F,0,0,1,0,0,0,1 @ F,0,0,1,0,0,0,1"
       radius="0"
       unit="px"
       method="auto"
       mode="F"
       chamfer_steps="1"
       flexible="false"
       use_knot_distance="true"
       apply_no_radius="true"
       apply_with_radius="true"
       only_selected="false"
       hide_knots="false" /><inkscape:path-effect
       effect="fillet_chamfer"
       id="path-effect4"
       is_visible="true"
       lpeversion="1"
       nodesatellites_param="F,0,0,1,0,11.430208,0,1 @ F,0,0,1,0,0,0,1 @ F,0,0,1,0,0,0,1 @ F,0,0,1,0,0,0,1"
       radius="0"
       unit="px"
       method="auto"
       mode="F"
       chamfer_steps="1"
       flexible="false"
       use_knot_distance="true"
       apply_no_radius="true"
       apply_with_radius="true"
       only_selected="false"
       hide_knots="false" /><inkscape:path-effect
       effect="fillet_chamfer"
       id="path-effect3"
       is_visible="true"
       lpeversion="1"
       nodesatellites_param="F,0,0,1,0,0,0,1 @ F,0,0,1,0,11.430208,0,1 @ F,0,0,1,0,0,0,1 @ F,0,0,1,0,0,0,1"
       radius="0"
       unit="px"
       method="auto"
       mode="F"
       chamfer_steps="1"
       flexible="false"
       use_knot_distance="true"
       apply_no_radius="true"
       apply_with_radius="true"
       only_selected="false"
       hide_knots="false" /><inkscape:path-effect
       effect="fillet_chamfer"
       id="path-effect65-1"
       is_visible="true"
       lpeversion="1"
       nodesatellites_param="F,0,0,1,0,9.99991,0,1 @ F,0,0,1,0,0,0,1 @ F,0,0,1,0,0,0,1 @ F,0,0,1,0,0,0,1 | F,0,0,1,0,0,0,1 @ F,0,0,1,0,0,0,1 @ F,0,0,1,0,0,0,1 @ F,0,0,1,0,0,0,1 | F,0,0,1,0,0,0,1 @ F,0,0,1,0,0,0,1 @ F,0,0,1,0,0,0,1 @ F,0,0,1,0,0,0,1"
       radius="0"
       unit="px"
       method="auto"
       mode="F"
       chamfer_steps="1"
       flexible="false"
       use_knot_distance="true"
       apply_no_radius="true"
       apply_with_radius="true"
       only_selected="false"
       hide_knots="false" /><inkscape:path-effect
       effect="fillet_chamfer"
       id="path-effect14-2"
       is_visible="true"
       lpeversion="1"
       nodesatellites_param="F,0,0,1,0,0,0,1 @ F,0,0,1,0,0,0,1 @ F,0,0,1,0,0,0,1 @ F,0,1,1,0,9.99991,0,1 | F,0,0,1,0,9.99991,0,1 @ F,0,0,1,0,0,0,1 @ F,0,0,1,0,0,0,1 @ F,0,0,1,0,0,0,1"
       radius="0"
       unit="px"
       method="auto"
       mode="F"
       chamfer_steps="1"
       flexible="false"
       use_knot_distance="true"
       apply_no_radius="true"
       apply_with_radius="true"
       only_selected="false"
       hide_knots="false" /><inkscape:path-effect
       effect="fillet_chamfer"
       id="path-effect13-7"
       is_visible="true"
       lpeversion="1"
       nodesatellites_param="F,0,0,1,0,0,0,1 @ F,0,0,1,0,0,0,1 @ F,0,0,1,0,0,0,1 @ F,0,0,1,0,0,0,1 @ F,0,0,1,0,0,0,1 @ F,0,0,1,0,0,0,1 | F,0,0,1,0,0,0,1 @ F,0,0,1,0,9.99991,0,1 @ F,0,0,1,0,0,0,1 @ F,0,0,1,0,0,0,1"
       radius="0"
       unit="px"
       method="auto"
       mode="F"
       chamfer_steps="1"
       flexible="false"
       use_knot_distance="true"
       apply_no_radius="true"
       apply_with_radius="true"
       only_selected="false"
       hide_knots="false" /><inkscape:path-effect
       effect="fillet_chamfer"
       id="path-effect11-0"
       is_visible="true"
       lpeversion="1"
       nodesatellites_param="F,0,0,1,0,0,0,1 @ F,0,0,1,0,0,0,1 @ F,0,0,1,0,0,0,1 @ F,0,0,1,0,0,0,1 @ F,0,0,1,0,0,0,1 @ F,0,0,1,0,0,0,1 | F,0,0,1,0,0,0,1 @ F,0,0,1,0,9.99991,0,1 @ F,0,0,1,0,0,0,1 @ F,0,0,1,0,0,0,1"
       radius="0"
       unit="px"
       method="auto"
       mode="F"
       chamfer_steps="1"
       flexible="false"
       use_knot_distance="true"
       apply_no_radius="true"
       apply_with_radius="true"
       only_selected="false"
       hide_knots="false" /><inkscape:path-effect
       effect="fillet_chamfer"
       id="path-effect9-9"
       is_visible="true"
       lpeversion="1"
       nodesatellites_param="F,0,0,1,0,0,0,1 @ F,0,0,1,0,0,0,1 @ F,0,0,1,0,0,0,1 @ F,0,0,1,0,0,0,1 @ F,0,0,1,0,0,0,1 @ F,0,0,1,0,0,0,1 | F,0,0,1,0,0,0,1 @ F,0,0,1,0,9.99991,0,1 @ F,0,0,1,0,0,0,1 @ F,0,0,1,0,0,0,1"
       radius="0"
       unit="px"
       method="auto"
       mode="F"
       chamfer_steps="1"
       flexible="false"
       use_knot_distance="true"
       apply_no_radius="true"
       apply_with_radius="true"
       only_selected="false"
       hide_knots="false" /><inkscape:path-effect
       effect="fillet_chamfer"
       id="path-effect4-3"
       is_visible="true"
       lpeversion="1"
       nodesatellites_param="F,0,0,1,0,11.430208,0,1 @ F,0,0,1,0,0,0,1 @ F,0,0,1,0,0,0,1 @ F,0,0,1,0,0,0,1"
       radius="0"
       unit="px"
       method="auto"
       mode="F"
       chamfer_steps="1"
       flexible="false"
       use_knot_distance="true"
       apply_no_radius="true"
       apply_with_radius="true"
       only_selected="false"
       hide_knots="false" /><inkscape:path-effect
       effect="fillet_chamfer"
       id="path-effect3-6"
       is_visible="true"
       lpeversion="1"
       nodesatellites_param="F,0,0,1,0,0,0,1 @ F,0,0,1,0,11.430208,0,1 @ F,0,0,1,0,0,0,1 @ F,0,0,1,0,0,0,1"
       radius="0"
       unit="px"
       method="auto"
       mode="F"
       chamfer_steps="1"
       flexible="false"
       use_knot_distance="true"
       apply_no_radius="true"
       apply_with_radius="true"
       only_selected="false"
       hide_knots="false" /><inkscape:path-effect
       effect="fillet_chamfer"
       id="path-effect65-8"
       is_visible="true"
       lpeversion="1"
       nodesatellites_param="F,0,0,1,0,9.99991,0,1 @ F,0,0,1,0,0,0,1 @ F,0,0,1,0,0,0,1 @ F,0,0,1,0,0,0,1 | F,0,0,1,0,0,0,1 @ F,0,0,1,0,0,0,1 @ F,0,0,1,0,0,0,1 @ F,0,0,1,0,0,0,1 | F,0,0,1,0,0,0,1 @ F,0,0,1,0,0,0,1 @ F,0,0,1,0,0,0,1 @ F,0,0,1,0,0,0,1"
       radius="0"
       unit="px"
       method="auto"
       mode="F"
       chamfer_steps="1"
       flexible="false"
       use_knot_distance="true"
       apply_no_radius="true"
       apply_with_radius="true"
       only_selected="false"
       hide_knots="false" /><inkscape:path-effect
       effect="fillet_chamfer"
       id="path-effect14-4"
       is_visible="true"
       lpeversion="1"
       nodesatellites_param="F,0,0,1,0,0,0,1 @ F,0,0,1,0,0,0,1 @ F,0,0,1,0,0,0,1 @ F,0,1,1,0,9.99991,0,1 | F,0,0,1,0,9.99991,0,1 @ F,0,0,1,0,0,0,1 @ F,0,0,1,0,0,0,1 @ F,0,0,1,0,0,0,1"
       radius="0"
       unit="px"
       method="auto"
       mode="F"
       chamfer_steps="1"
       flexible="false"
       use_knot_distance="true"
       apply_no_radius="true"
       apply_with_radius="true"
       only_selected="false"
       hide_knots="false" /><inkscape:path-effect
       effect="fillet_chamfer"
       id="path-effect13-5"
       is_visible="true"
       lpeversion="1"
       nodesatellites_param="F,0,0,1,0,0,0,1 @ F,0,0,1,0,0,0,1 @ F,0,0,1,0,0,0,1 @ F,0,0,1,0,0,0,1 @ F,0,0,1,0,0,0,1 @ F,0,0,1,0,0,0,1 | F,0,0,1,0,0,0,1 @ F,0,0,1,0,9.99991,0,1 @ F,0,0,1,0,0,0,1 @ F,0,0,1,0,0,0,1"
       radius="0"
       unit="px"
       method="auto"
       mode="F"
       chamfer_steps="1"
       flexible="false"
       use_knot_distance="true"
       apply_no_radius="true"
       apply_with_radius="true"
       only_selected="false"
       hide_knots="false" /><inkscape:path-effect
       effect="fillet_chamfer"
       id="path-effect11-03"
       is_visible="true"
       lpeversion="1"
       nodesatellites_param="F,0,0,1,0,0,0,1 @ F,0,0,1,0,0,0,1 @ F,0,0,1,0,0,0,1 @ F,0,0,1,0,0,0,1 @ F,0,0,1,0,0,0,1 @ F,0,0,1,0,0,0,1 | F,0,0,1,0,0,0,1 @ F,0,0,1,0,9.99991,0,1 @ F,0,0,1,0,0,0,1 @ F,0,0,1,0,0,0,1"
       radius="0"
       unit="px"
       method="auto"
       mode="F"
       chamfer_steps="1"
       flexible="false"
       use_knot_distance="true"
       apply_no_radius="true"
       apply_with_radius="true"
       only_selected="false"
       hide_knots="false" /><inkscape:path-effect
       effect="fillet_chamfer"
       id="path-effect9-6"
       is_visible="true"
       lpeversion="1"
       nodesatellites_param="F,0,0,1,0,0,0,1 @ F,0,0,1,0,0,0,1 @ F,0,0,1,0,0,0,1 @ F,0,0,1,0,0,0,1 @ F,0,0,1,0,0,0,1 @ F,0,0,1,0,0,0,1 | F,0,0,1,0,0,0,1 @ F,0,0,1,0,9.99991,0,1 @ F,0,0,1,0,0,0,1 @ F,0,0,1,0,0,0,1"
       radius="0"
       unit="px"
       method="auto"
       mode="F"
       chamfer_steps="1"
       flexible="false"
       use_knot_distance="true"
       apply_no_radius="true"
       apply_with_radius="true"
       only_selected="false"
       hide_knots="false" /><inkscape:path-effect
       effect="fillet_chamfer"
       id="path-effect4-1"
       is_visible="true"
       lpeversion="1"
       nodesatellites_param="F,0,0,1,0,11.430208,0,1 @ F,0,0,1,0,0,0,1 @ F,0,0,1,0,0,0,1 @ F,0,0,1,0,0,0,1"
       radius="0"
       unit="px"
       method="auto"
       mode="F"
       chamfer_steps="1"
       flexible="false"
       use_knot_distance="true"
       apply_no_radius="true"
       apply_with_radius="true"
       only_selected="false"
       hide_knots="false" /><inkscape:path-effect
       effect="fillet_chamfer"
       id="path-effect3-0"
       is_visible="true"
       lpeversion="1"
       nodesatellites_param="F,0,0,1,0,0,0,1 @ F,0,0,1,0,11.430208,0,1 @ F,0,0,1,0,0,0,1 @ F,0,0,1,0,0,0,1"
       radius="0"
       unit="px"
       method="auto"
       mode="F"
       chamfer_steps="1"
       flexible="false"
       use_knot_distance="true"
       apply_no_radius="true"
       apply_with_radius="true"
       only_selected="false"
       hide_knots="false" /><clipPath
       clipPathUnits="userSpaceOnUse"
       id="clipPath180"><rect
         style="fill:#ffffff;fill-opacity:1;fill-rule:evenodd;stroke:none;stroke-width:0.500002;stroke-dasharray:none;stroke-opacity:1"
         id="rect181"
         width="944.47827"
         height="531.26898"
         x="2838.5586"
         y="3332.0281" /></clipPath><linearGradient
       inkscape:collect="always"
       xlink:href="#linearGradient30"
       id="linearGradient148"
       gradientUnits="userSpaceOnUse"
       gradientTransform="translate(386.62331,-23.21036)"
       x1="-339.64853"
       y1="222.74661"
       x2="-298.24222"
       y2="247.27844" /><linearGradient
       id="linearGradient30"
       inkscape:collect="always"><stop
         style="stop-color:#0000ff;stop-opacity:1;"
         offset="0"
         id="stop30" /><stop
         style="stop-color:#00ffff;stop-opacity:1"
         offset="0.5"
         id="stop32" /><stop
         style="stop-color:#ff00ff;stop-opacity:1"
         offset="0.75"
         id="stop33" /><stop
         style="stop-color:#0000ff;stop-opacity:1;"
         offset="1"
         id="stop31" /></linearGradient></defs><g
     id="g148"
     transform="matrix(1.4879481,0,0,1.4879481,699.66636,-7908.7584)"
     style="stroke-width:2.54009"><g
       id="g145"
       transform="matrix(1.5115386,0,0,1.5115386,-361.59531,5205.3448)"
       style="stroke-width:1.68045"><path
         id="path144"
         style="color:#000000;fill:#4d4d4d;fill-opacity:1;fill-rule:evenodd;stroke-width:1.68045;stroke-linecap:round;stroke-linejoin:round;-inkscape-stroke:none"
         d="m 96.125907,189.51815 -0.34985,0.99994 h 1.62936 c 0.5669,0 0.93971,0.19286 1.1405,0.44906 0.20079,0.25623 0.27207,0.60183 0.10542,1.07849 l -4.84932,13.87099 c -0.16662,0.47666 -0.576364,0.94204 -1.087784,1.28726 -0.511418,0.34522 -1.124988,0.56999 -1.691886,0.56999 H 79.708309 c -0.80535,0 -1.608475,0.2669 -2.273763,0.7152 -0.665278,0.44832 -1.194375,1.08014 -1.451075,1.81436 l -3.490226,9.98441 c -0.33328,0.9533 -1.645366,1.85725 -2.779158,1.85725 H 53.993082 c -0.566896,0 -0.937653,-0.19492 -1.138431,-0.45114 -0.200788,-0.25623 -0.274125,-0.59976 -0.107487,-1.07642 l 2.170926,-6.21099 h -1.058333 l -2.055688,5.8813 c -0.2567,0.73425 -0.157517,1.48581 0.263549,2.02313 0.42106,0.53733 1.120118,0.83406 1.925464,0.83406 h 15.721005 c 1.610692,0 3.20938,-1.05901 3.72277,-2.5275 l 3.491776,-9.9844 c 0.33328,-0.95332 1.64588,-1.85932 2.779676,-1.85932 h 11.314038 c 0.805318,0 1.608483,-0.26429 2.273763,-0.71262 0.665297,-0.44832 1.194387,-1.08011 1.451077,-1.81436 l 4.84983,-13.8715 c 0.2567,-0.73425 0.157,-1.48788 -0.26407,-2.0252 -0.42106,-0.53732 -1.12218,-0.83199 -1.92753,-0.83199 z m -53.527478,10.51719 -2.056205,5.88129 c -0.12835,0.36713 -0.16849,0.73872 -0.12299,1.08572 0.0455,0.347 0.17601,0.67083 0.38654,0.93948 0.421056,0.53732 1.120634,0.83199 1.92598,0.83199 h 8.627897 l 0.349333,-0.99994 h -8.97723 c -0.566896,0 -0.938162,-0.19285 -1.138948,-0.44907 -0.20079,-0.25621 -0.274137,-0.60131 -0.107487,-1.07797 l 2.171443,-6.2115 z" /><path
         style="color:#000000;fill:url(#linearGradient148);fill-rule:evenodd;stroke-width:1.68045;stroke-linecap:round;stroke-linejoin:round;-inkscape-stroke:none"
         d="m 69.010027,166.40856 c -1.6107,0 -3.21122,1.05886 -3.72461,2.52735 l -3.49023,9.98632 c -0.33329,0.95333 -1.6455,1.85743 -2.7793,1.85743 h -11.31641 c -1.6107,0 -3.20927,1.05884 -3.72265,2.52734 l -4.84961,13.87109 c -0.12835,0.36713 -0.16855,0.73894 -0.12305,1.08594 0.0455,0.347 0.17619,0.6708 0.38672,0.93945 0.42106,0.53732 1.12043,0.83204 1.92578,0.83204 h 11.31641 c 0.5669,0 0.93788,0.19494 1.13867,0.45117 0.20079,0.25622 0.27406,0.60146 0.10742,1.07812 l -3.49023,9.98438 c -0.2567,0.73425 -0.1574,1.48611 0.26367,2.02343 0.42106,0.53733 1.12043,0.83399 1.92578,0.83399 h 15.7207 c 1.6107,0 3.20927,-1.05885 3.72266,-2.52734 l 3.49219,-9.98438 c 0.33328,-0.95332 1.64549,-1.85937 2.77929,-1.85937 h 11.31446 c 0.80534,0 1.60815,-0.26457 2.27343,-0.7129 0.66529,-0.44832 1.19448,-1.0802 1.45117,-1.81445 l 4.84961,-13.87109 c 0.2567,-0.73425 0.1574,-1.48807 -0.26367,-2.02539 -0.42106,-0.53732 -1.12238,-0.83203 -1.92773,-0.83203 h -11.31446 c -0.5669,0 -0.93788,-0.19495 -1.13867,-0.45118 -0.20079,-0.25622 -0.27406,-0.59951 -0.10742,-1.07617 l 3.49024,-9.98633 c 0.25669,-0.73424 0.15739,-1.48612 -0.26368,-2.02343 -0.42106,-0.53732 -1.12043,-0.83399 -1.92578,-0.83399 z m 0,1 h 15.7207 c 0.5669,0 0.93789,0.19495 1.13867,0.45117 0.20079,0.25623 0.27407,0.59952 0.10743,1.07618 l -3.49219,9.98632 c -0.12835,0.36713 -0.16659,0.73699 -0.1211,1.08399 0.0455,0.347 0.17619,0.67079 0.38672,0.93945 0.42107,0.53732 1.12044,0.83399 1.92578,0.83399 h 11.31446 c 0.5669,0 0.93983,0.19299 1.14062,0.44921 0.20079,0.25623 0.27212,0.60147 0.10547,1.07813 l -4.84961,13.87109 c -0.16664,0.47666 -0.57647,0.94189 -1.08789,1.28711 -0.51142,0.34522 -1.1245,0.57032 -1.6914,0.57032 h -11.31446 c -0.80535,0 -1.60815,0.26652 -2.27344,0.71484 -0.66528,0.44832 -1.19447,1.08021 -1.45117,1.81445 l -3.49023,9.98438 c -0.33328,0.95332 -1.6455,1.85742 -2.7793,1.85742 h -15.7207 c -0.5669,0 -0.93789,-0.19495 -1.13867,-0.45117 -0.20079,-0.25623 -0.27407,-0.59951 -0.10743,-1.07617 l 3.49024,-9.98438 c 0.12835,-0.36712 0.16854,-0.73894 0.12305,-1.08594 -0.0455,-0.34699 -0.17619,-0.67079 -0.38672,-0.93945 -0.42107,-0.53732 -1.12044,-0.83398 -1.92578,-0.83398 h -11.31641 c -0.5669,0 -0.93788,-0.193 -1.13867,-0.44922 -0.20079,-0.25623 -0.27407,-0.60147 -0.10742,-1.07813 l 4.84961,-13.87109 c 0.33328,-0.95332 1.64549,-1.85742 2.77929,-1.85742 h 11.31641 c 0.80535,0 1.60815,-0.26457 2.27344,-0.71289 0.66528,-0.44833 1.19252,-1.08021 1.44921,-1.81446 l 3.49219,-9.98633 c 0.33329,-0.95332 1.6455,-1.85742 2.7793,-1.85742 z m 6.78516,2.07422 c -0.42326,0 -0.8554,0.17168 -1.19532,0.50977 l -7.6289,7.58789 c -0.33993,0.33809 -0.51265,0.79813 -0.38086,1.22851 0.13179,0.43039 0.58981,0.7168 1.0664,0.7168 h 9.95313 c 0.47659,0 0.89409,-0.21017 1.19531,-0.50977 0.30122,-0.29959 0.52624,-0.74542 0.37891,-1.22656 l -2.32422,-7.58789 c -0.14734,-0.48114 -0.6412,-0.71875 -1.06445,-0.71875 z m 0,1 c 0.13281,0 0.10834,0.006 0.10937,0.01 l 2.32422,7.58984 c 0.001,0.003 -0.004,0.10025 -0.12891,0.22461 -0.12503,0.12436 -0.33131,0.21875 -0.49023,0.21875 h -9.95313 c -0.15892,0 -0.11134,-0.0162 -0.10937,-0.01 0.002,0.006 -0.0183,-0.0801 0.1289,-0.22656 l 7.62891,-7.58789 c 0.14723,-0.14643 0.35742,-0.21875 0.49024,-0.21875 z m 11.05078,13.7168 c -3.77685,-1e-5 -7.67382,2.60832 -8.85547,5.98828 -0.59083,1.68998 -0.35523,3.30706 0.55664,4.4707 0.91187,1.16364 2.45727,1.84766 4.3457,1.84766 3.77685,-1e-5 7.67383,-2.60833 8.85547,-5.98828 0.59082,-1.68998 0.35327,-3.30707 -0.55859,-4.47071 -0.91187,-1.16363 -2.45533,-1.84765 -4.34375,-1.84765 z m -38.0293,0.93164 c -0.84321,0 -1.62779,0.50989 -1.9043,1.30078 l -2.62695,7.51367 c -0.13826,0.39546 -0.0873,0.84051 0.16016,1.15625 0.24742,0.31574 0.64675,0.47461 1.06836,0.47461 h 8.63476 c 0.8432,0 1.62779,-0.50987 1.9043,-1.30078 l 2.62695,-7.51367 c 0.13826,-0.39546 0.0873,-0.84247 -0.16016,-1.15821 -0.24742,-0.31573 -0.64675,-0.47265 -1.06835,-0.47265 z m 38.0293,0.0684 c 1.64997,0 2.86504,0.5823 3.55664,1.46484 0.69159,0.88255 0.90115,2.09105 0.40039,3.52344 -1.00154,2.86478 -4.61021,5.31835 -7.91016,5.31836 -1.64998,0 -2.867,-0.58035 -3.55859,-1.46289 -0.6916,-0.88255 -0.90116,-2.093 -0.40039,-3.52539 1.00154,-2.86479 4.61216,-5.31837 7.91211,-5.31836 z m -38.0293,0.93164 h 8.63477 c 0.18479,0 0.25504,0.0564 0.28125,0.0898 0.0262,0.0334 0.0527,0.0713 0.004,0.21094 l -2.62695,7.51367 c -0.0976,0.27931 -0.59134,0.63086 -0.96094,0.63086 h -8.63476 c -0.18481,0 -0.25506,-0.0584 -0.28125,-0.0918 -0.0262,-0.0334 -0.0527,-0.0693 -0.004,-0.20898 l 2.62695,-7.51367 c 0.0976,-0.27931 0.59133,-0.63086 0.96094,-0.63086 z m 11.0625,16.60547 a 0.5,0.5 0 0 0 -0.36719,0.10547 0.5,0.5 0 0 0 -0.0801,0.70117 l 2.6836,3.36914 -5.22266,3.49023 a 0.5,0.5 0 0 0 -0.13672,0.69336 0.5,0.5 0 0 0 0.69336,0.13867 l 5.29102,-3.53711 2.73437,3.43165 a 0.5,0.5 0 0 0 0.70313,0.0801 0.5,0.5 0 0 0 0.0781,-0.70312 l -2.68164,-3.36719 5.22071,-3.49023 a 0.5,0.5 0 0 0 0.13867,-0.69336 0.5,0.5 0 0 0 -0.69336,-0.13867 l -5.29102,3.5371 -2.73437,-3.43359 a 0.5,0.5 0 0 0 -0.33594,-0.18359 z"
         id="path145" /></g><path
       id="path146"
       style="color:#000000;fill:#000000;fill-rule:evenodd;stroke-width:2.54009;-inkscape-stroke:none"
       d="m -210.82427,5582.7462 c -0.35283,0 -0.72397,0.1129 -0.93947,0.416 l -3.17759,4.4726 -1.72289,2.42 h 0.84026 l 1.31051,-1.8417 h 7.16752 l 1.31052,1.8417 h 1.05316 l -4.72271,-6.6409 c -0.0364,0.01 -0.16139,0.013 -0.29455,0.02 l -0.0899,-0.1266 c -0.0271,-0.038 -0.0787,-0.055 -0.11472,-0.086 l 0.35243,-0.015 -0.0331,-0.045 c -0.21562,-0.3031 -0.58686,-0.416 -0.93948,-0.416 z m 84.95916,0.039 c -1.16634,0 -2.11719,0.951 -2.11719,2.1172 v 3.0861 c 0,0.8171 -0.65767,1.4742 -1.47484,1.4743 h -3.66593 v 0.6837 h 3.8809 c 1.1663,0 2.11719,-0.9509 2.11719,-2.1172 v -3.0856 c 0,-0.8171 0.65787,-1.4747 1.47484,-1.4748 h 3.66748 v -0.6837 z m -265.65614,0.092 v 0.2501 0.4335 h 154.62105 c 0.81646,0 1.4711,0.6566 1.47227,1.4728 -0.0237,0.7904 -0.67522,1.4089 -1.46658,1.3886 h -0.004 -5.91179 c -1.16628,1e-4 -2.11712,0.9509 -2.11718,2.1172 v 1.5156 h 0.85731 v -1.4748 c 7e-5,-0.817 0.65734,-1.4722 1.47433,-1.4723 h 5.90817 c 1.16658,1e-4 2.11943,-0.9527 2.11925,-2.1192 -0.001,-1.1652 -0.9542,-2.113 -2.11925,-2.1115 z m 160.84341,0 v 0.2501 4.8105 c 6e-5,1.1663 0.95083,2.1172 2.11719,2.1172 h 8.24032 v -0.6837 h -8.02535 c -0.81712,1e-4 -1.4749,-0.6573 -1.47484,-1.4743 v -5.0198 z m 52.46709,0 v 0.2501 0.4335 h 8.02741 c 0.81548,1e-4 1.46976,0.6559 1.47226,1.4708 -0.0228,0.7911 -0.67484,1.4108 -1.46657,1.3906 h -0.002 -5.91385 c -1.16654,-1e-4 -2.1173,0.9506 -2.11718,2.1172 v 1.5156 h 0.85731 v -1.4748 c 8e-5,-0.8172 0.65716,-1.4724 1.47433,-1.4723 h 5.91023 c 1.16645,-1e-4 2.11736,-0.9527 2.11718,-2.1192 -0.001,-1.1651 -0.95222,-2.1129 -2.11718,-2.1115 z m 15.02905,0 v 0.2501 4.8105 c 7e-5,1.1663 0.95083,2.1172 2.11719,2.1172 h 8.24239 v -0.6837 h -8.02742 c -0.81713,1e-4 -1.47485,-0.6572 -1.47485,-1.4743 v -5.0198 z m 15.02958,0 v 0.2501 4.8105 c 0,1.1663 0.95076,2.1172 2.11718,2.1172 h 6.12262 c 1.16643,0 2.11719,-0.9509 2.11719,-2.1172 v -5.0606 h -0.85732 v 5.0198 c 0,0.8171 -0.65569,1.4743 -1.47277,1.4743 h -5.69526 c -0.81716,0 -1.47433,-0.6572 -1.47433,-1.4743 v -5.0198 z m -53.53162,0.01 0.43201,0.4274 4.53875,4.4943 c 0.13186,0.1305 0.30942,0.1882 0.48059,0.2537 v 1.9926 h 0.85731 v -1.9926 c 0.16479,-0.062 0.3336,-0.1126 0.47852,-0.248 l 5.27152,-4.9274 h -0.95499 l -4.63072,4.209 c -0.10081,0.092 -0.29306,0.1592 -0.48834,0.1602 -0.19527,0 -0.38092,-0.064 -0.47491,-0.1545 l -4.36304,-4.2147 z m -9.24801,0.7534 c 0.20527,-10e-5 0.39373,0.086 0.44958,0.1644 l 2.64997,3.7248 h -6.19497 l 2.64841,-3.7248 c 0.056,-0.079 0.24123,-0.1644 0.44701,-0.1644 z" /><path
       id="path147"
       style="font-size:23.7441px;line-height:1.25;font-family:PS;-inkscape-font-specification:PS;text-align:justify;letter-spacing:0px;fill:#1a1a1a;fill-opacity:1;stroke-width:0.672068"
       d="m -342.91104,5552.7747 c -0.82107,0 -1.51561,0.3979 -2.08268,1.1936 l -12.08809,17.0153 h 3.07274 l 2.4252,-3.4032 h 16.55793 l 2.41275,3.4032 h 4.7106 l -12.11353,-17.0532 c -0.55863,-0.7703 -1.24407,-1.1557 -2.0567,-1.1557 z m 23.54163,0 c -1.76936,0 -3.15763,0.4867 -4.1651,1.4602 -1.00733,0.9734 -1.51106,2.1803 -1.51106,3.6193 v 8.0505 c 0,1.439 0.50373,2.6452 1.51106,3.6187 1.00747,0.9735 2.39574,1.4602 4.1651,1.4602 h 16.79909 c 1.76922,0 3.15762,-0.4867 4.16495,-1.4602 1.00733,-0.9735 1.51107,-2.1797 1.51107,-3.6187 v -5.0921 h -15.18667 v 2.1331 h 11.0596 v 2.959 c 0,0.821 -0.29592,1.5189 -0.88856,2.0946 -0.58407,0.5756 -1.39296,0.8636 -2.42573,0.8636 h -13.26909 c -1.03277,0 -1.84514,-0.288 -2.43765,-0.8636 -0.58407,-0.5757 -0.8761,-1.2736 -0.8761,-2.0946 v -8.0505 c 0,-0.8211 0.29203,-1.5195 0.8761,-2.0951 0.59251,-0.5757 1.40488,-0.8637 2.43765,-0.8637 h 20.71045 v -2.1207 z m 27.87168,0 v 18.2089 h 4.12653 v -18.2089 z m 15.19912,0 c -1.76922,0 -3.15763,0.4867 -4.16496,1.4602 -1.00733,0.9734 -1.5112,2.1803 -1.5112,3.6193 v 8.0505 c 0,1.439 0.50387,2.6452 1.5112,3.6187 1.00733,0.9735 2.39574,1.4602 4.16496,1.4602 h 21.2052 v -2.1207 h -19.44054 c -1.03277,0 -1.845,-0.288 -2.43765,-0.8636 -0.58407,-0.5757 -0.8761,-1.2736 -0.8761,-2.0946 v -8.0505 c 0,-0.8211 0.29203,-1.5195 0.8761,-2.0951 0.59265,-0.5757 1.40488,-0.8637 2.43765,-0.8637 h 19.44054 v -2.1207 z m -109.7005,0.072 c -2.91192,0 -5.27258,2.3605 -5.27258,5.2726 v 12.8639 h 4.01392 v -12.8067 c 0,-1.8353 1.48696,-3.3229 3.32219,-3.3229 h 2.88863 c 1.83509,0 3.32272,1.4876 3.32272,3.3229 v 12.8067 h 4.01446 v -12.8067 c 0,-1.8353 1.48709,-3.3229 3.32219,-3.3229 h 2.88862 c 1.83524,0 3.32273,1.4876 3.32273,3.3229 v 12.8067 h 4.01392 v -12.8639 c 0,-2.9121 -2.36065,-5.2726 -5.27258,-5.2726 h -7.01622 c -1.23443,0 -2.36762,0.4279 -3.26622,1.1387 -0.89834,-0.7105 -2.03127,-1.1387 -3.26556,-1.1387 z m 42.70726,3.445 c 0.16081,0 0.32136,0.1098 0.48217,0.33 l 6.27268,8.8376 h -13.53581 l 6.26022,-8.7991 c 0.17782,-0.2455 0.35136,-0.3685 0.52074,-0.3685 z"
       sodipodi:nodetypes="sccccccccsssssssssssccccscsscsscsccscccccssssssccscsscsccsssccssssccssssccssscsssccccs" /><path
       id="path148"
       style="font-size:19.3852px;line-height:1.25;font-family:PS;-inkscape-font-specification:PS;text-align:justify;letter-spacing:0px;fill:#4d4d4d;stroke-width:0.672068"
       d="m -244.678,5552.7744 v 2.1167 h 19.40358 c 1.03076,0 1.83804,0.2876 2.42104,0.8622 0.59144,0.5746 0.88709,1.2715 0.88709,2.0911 0,0.811 -0.30824,1.508 -0.92512,2.091 -0.6083,0.5746 -1.40287,0.8622 -2.38301,0.8622 h -14.13167 c -1.6139,0 -2.898,0.4053 -3.85284,1.2165 -0.94627,0.8027 -1.41907,1.9055 -1.41907,3.3081 v 5.627 h 4.11836 v -5.1198 c 0,-0.8957 0.27088,-1.6012 0.8117,-2.1167 0.54082,-0.5238 1.25036,-0.786 2.12914,-0.786 h 14.10596 c 1.75757,0 3.13929,-0.4855 4.14488,-1.4572 1.01389,-0.9717 1.52083,-2.1803 1.52083,-3.6251 0,-1.4365 -0.50293,-2.6404 -1.50838,-3.6119 -1.00559,-0.9718 -2.39132,-1.4581 -4.15733,-1.4581 z m 31.26698,0 v 13.1055 c 0,1.4365 0.50293,2.6404 1.50838,3.6121 1.00559,0.9715 2.39065,1.4572 4.15653,1.4572 h 21.16597 v -2.116 h -19.40425 c -1.03076,0 -1.8414,-0.2876 -2.43283,-0.8622 -0.583,-0.5746 -0.87464,-1.2715 -0.87464,-2.0911 v -13.1055 z m 31.26698,0 v 13.1055 c 0,1.4365 0.50293,2.6404 1.50852,3.6121 1.00545,0.9715 2.39118,1.4572 4.15719,1.4572 h 15.50026 c 1.76601,0 3.15174,-0.4857 4.15719,-1.4572 1.00559,-0.9717 1.50852,-2.1756 1.50852,-3.6121 v -13.1055 h -4.11916 v 13.1055 c 0,0.8196 -0.29566,1.5165 -0.88709,2.0911 -0.583,0.5746 -1.39028,0.8622 -2.42118,0.8622 h -11.97682 c -1.03089,0 -1.84219,-0.2876 -2.43363,-0.8622 -0.583,-0.5746 -0.87463,-1.2715 -0.87463,-2.0911 v -13.1055 z m 48.75807,0 c -1.65608,0 -2.96562,0.414 -3.92889,1.2421 -0.96315,0.8196 -1.44545,1.952 -1.44545,3.3968 v 8.4535 c 0,0.845 -0.28695,1.5505 -0.86152,2.1167 -0.56613,0.5576 -1.39872,0.8366 -2.49723,0.8366 h -9.07413 v 2.1291 h 11.06428 c 1.73213,0 3.07569,-0.4562 4.03053,-1.3687 0.96327,-0.9125 1.44478,-2.0449 1.44478,-3.3968 v -8.3393 c 0,-0.9295 0.30837,-1.6518 0.92511,-2.1672 0.61688,-0.5155 1.43206,-0.773 2.44609,-0.773 h 9.04922 v -2.1298 z" /></g></svg>
