<?xml version="1.0" encoding="UTF-8" standalone="no"?>
<!-- Created with Inkscape (http://www.inkscape.org/) -->

<svg
   width="176.38889mm"
   height="175.74295mm"
   viewBox="0 0 176.38889 175.74295"
   version="1.1"
   id="svg1"
   inkscape:version="1.4.2 (ebf0e94, 2025-05-08)"
   sodipodi:docname="linkedin-logo.svg"
   xml:space="preserve"
   xmlns:inkscape="http://www.inkscape.org/namespaces/inkscape"
   xmlns:sodipodi="http://sodipodi.sourceforge.net/DTD/sodipodi-0.dtd"
   xmlns="http://www.w3.org/2000/svg"
   xmlns:svg="http://www.w3.org/2000/svg"><sodipodi:namedview
     id="namedview1"
     pagecolor="#ffffff"
     bordercolor="#000000"
     borderopacity="0.25"
     inkscape:showpageshadow="2"
     inkscape:pageopacity="0.0"
     inkscape:pagecheckerboard="0"
     inkscape:deskcolor="#d1d1d1"
     inkscape:document-units="mm"
     inkscape:zoom="0.73584456"
     inkscape:cx="339.06617"
     inkscape:cy="276.55297"
     inkscape:window-width="1920"
     inkscape:window-height="1048"
     inkscape:window-x="0"
     inkscape:window-y="0"
     inkscape:window-maximized="1"
     inkscape:current-layer="layer1" /><defs
     id="defs1"><clipPath
       clipPathUnits="userSpaceOnUse"
       id="clipPath35"><path
         d="M 0,1300 H 1300 V 0 H 0 Z"
         transform="translate(-599.66271,-888.81912)"
         id="path35" /></clipPath><clipPath
       clipPathUnits="userSpaceOnUse"
       id="clipPath37"><path
         d="M 0,1300 H 1300 V 0 H 0 Z"
         transform="translate(-604.03282,-619.28742)"
         id="path37" /></clipPath><clipPath
       clipPathUnits="userSpaceOnUse"
       id="clipPath39"><path
         d="M 0,1300 H 1300 V 0 H 0 Z"
         transform="translate(-899.80132,-966.27762)"
         id="path39" /></clipPath><clipPath
       clipPathUnits="userSpaceOnUse"
       id="clipPath41"><path
         d="M 0,1300 H 1300 V 0 H 0 Z"
         transform="translate(-823.59232,-1012.5549)"
         id="path41" /></clipPath><clipPath
       clipPathUnits="userSpaceOnUse"
       id="clipPath43"><path
         d="M 0,1300 H 1300 V 0 H 0 Z"
         transform="translate(-574.71254,-815.21312)"
         id="path43" /></clipPath><clipPath
       clipPathUnits="userSpaceOnUse"
       id="clipPath45"><path
         d="M 0,1300 H 1300 V 0 H 0 Z"
         transform="translate(-899.80132,-967.48323)"
         id="path45" /></clipPath><clipPath
       clipPathUnits="userSpaceOnUse"
       id="clipPath47"><path
         d="M 0,1300 H 1300 V 0 H 0 Z"
         transform="translate(-759.85702,-729.88892)"
         id="path47" /></clipPath></defs><g
     inkscape:label="Layer 1"
     inkscape:groupmode="layer"
     id="layer1"
     transform="translate(334.80045,-60.325)"><path
       id="blueRect"
       style="fill:#0072b1;fill-opacity:1;stroke-width:0.256253"
       d="m -300.04996,80.784766 c -7.45598,0 -13.49857,6.063187 -13.49857,13.542537 V 202.71169 c 0,7.48014 6.04259,13.54257 13.49857,13.54257 h 106.88788 c 7.45602,0 13.4986,-6.06243 13.4986,-13.54257 V 94.327303 c 0,-7.47935 -6.04258,-13.542537 -13.4986,-13.542537 z m 20.91529,26.199424 c 5.8075,0 9.36248,3.91009 9.48008,9.00585 0,4.97588 -3.67376,9.00585 -9.7172,9.00585 -5.68759,0 -9.36078,-4.02997 -9.36078,-9.00585 0,-5.09576 3.79194,-9.00585 9.5979,-9.00585 z m 53.91738,23.81723 c 11.85097,0 20.73782,7.94167 20.73782,25.006 v 34.24739 h -18.01173 v -32.11489 c 0,-7.46538 -2.60749,-12.56111 -9.12518,-12.56111 -4.97741,0 -7.93946,3.43677 -9.243,6.75403 -0.47427,1.18439 -0.59515,2.84508 -0.59515,4.50526 v 33.41671 h -18.01014 v -39.46249 c 0,-7.22783 -0.23855,-13.27025 -0.47427,-18.48596 h 15.64054 l 0.83226,8.05897 h 0.3549 c 2.36958,-3.79304 8.17663,-9.36391 17.89395,-9.36391 z m -63.04102,1.30494 h 18.01329 v 57.94845 h -18.01329 z" /></g></svg>
