<?xml version="1.0" encoding="UTF-8" standalone="no"?>
<!-- Created with Inkscape (http://www.inkscape.org/) -->

<svg
   version="1.1"
   width="1440"
   height="672"
   xml:space="preserve"
   inkscape:version="1.4.2 (ebf0e94, 2025-05-08)"
   sodipodi:docname="logo 2.svg"
   id="svg1"
   xmlns:inkscape="http://www.inkscape.org/namespaces/inkscape"
   xmlns:sodipodi="http://sodipodi.sourceforge.net/DTD/sodipodi-0.dtd"
   xmlns="http://www.w3.org/2000/svg"
   xmlns:svg="http://www.w3.org/2000/svg"><g
     id="g88"
     transform="matrix(1.1474068,0,0,1.1474068,455.61012,199.90127)"
     style="stroke-width:3.29396" /><sodipodi:namedview
     inkscape:zoom="0.5"
     inkscape:cx="760"
     inkscape:cy="707"
     inkscape:window-width="1920"
     inkscape:window-height="1048"
     inkscape:window-x="0"
     inkscape:window-y="0"
     inkscape:window-maximized="1"
     id="namedview1"
     pagecolor="#505050"
     bordercolor="#eeeeee"
     borderopacity="1"
     inkscape:showpageshadow="0"
     inkscape:pageopacity="0"
     inkscape:pagecheckerboard="0"
     inkscape:deskcolor="#505050"
     inkscape:current-layer="svg1"
     showguides="true"><sodipodi:guide
       position="144,672"
       orientation="1,0"
       id="guide1"
       inkscape:locked="false" /><sodipodi:guide
       position="1296,672"
       orientation="1,0"
       id="guide2"
       inkscape:locked="false" /></sodipodi:namedview><defs
     id="defs1"><inkscape:path-effect
       effect="fillet_chamfer"
       id="path-effect65"
       is_visible="true"
       lpeversion="1"
       nodesatellites_param="F,0,0,1,0,9.99991,0,1 @ F,0,0,1,0,0,0,1 @ F,0,0,1,0,0,0,1 @ F,0,0,1,0,0,0,1 | F,0,0,1,0,0,0,1 @ F,0,0,1,0,0,0,1 @ F,0,0,1,0,0,0,1 @ F,0,0,1,0,0,0,1 | F,0,0,1,0,0,0,1 @ F,0,0,1,0,0,0,1 @ F,0,0,1,0,0,0,1 @ F,0,0,1,0,0,0,1"
       radius="0"
       unit="px"
       method="auto"
       mode="F"
       chamfer_steps="1"
       flexible="false"
       use_knot_distance="true"
       apply_no_radius="true"
       apply_with_radius="true"
       only_selected="false"
       hide_knots="false" /><inkscape:path-effect
       effect="fillet_chamfer"
       id="path-effect14"
       is_visible="true"
       lpeversion="1"
       nodesatellites_param="F,0,0,1,0,0,0,1 @ F,0,0,1,0,0,0,1 @ F,0,0,1,0,0,0,1 @ F,0,1,1,0,9.99991,0,1 | F,0,0,1,0,9.99991,0,1 @ F,0,0,1,0,0,0,1 @ F,0,0,1,0,0,0,1 @ F,0,0,1,0,0,0,1"
       radius="0"
       unit="px"
       method="auto"
       mode="F"
       chamfer_steps="1"
       flexible="false"
       use_knot_distance="true"
       apply_no_radius="true"
       apply_with_radius="true"
       only_selected="false"
       hide_knots="false" /><inkscape:path-effect
       effect="fillet_chamfer"
       id="path-effect13"
       is_visible="true"
       lpeversion="1"
       nodesatellites_param="F,0,0,1,0,0,0,1 @ F,0,0,1,0,0,0,1 @ F,0,0,1,0,0,0,1 @ F,0,0,1,0,0,0,1 @ F,0,0,1,0,0,0,1 @ F,0,0,1,0,0,0,1 | F,0,0,1,0,0,0,1 @ F,0,0,1,0,9.99991,0,1 @ F,0,0,1,0,0,0,1 @ F,0,0,1,0,0,0,1"
       radius="0"
       unit="px"
       method="auto"
       mode="F"
       chamfer_steps="1"
       flexible="false"
       use_knot_distance="true"
       apply_no_radius="true"
       apply_with_radius="true"
       only_selected="false"
       hide_knots="false" /><inkscape:path-effect
       effect="fillet_chamfer"
       id="path-effect11"
       is_visible="true"
       lpeversion="1"
       nodesatellites_param="F,0,0,1,0,0,0,1 @ F,0,0,1,0,0,0,1 @ F,0,0,1,0,0,0,1 @ F,0,0,1,0,0,0,1 @ F,0,0,1,0,0,0,1 @ F,0,0,1,0,0,0,1 | F,0,0,1,0,0,0,1 @ F,0,0,1,0,9.99991,0,1 @ F,0,0,1,0,0,0,1 @ F,0,0,1,0,0,0,1"
       radius="0"
       unit="px"
       method="auto"
       mode="F"
       chamfer_steps="1"
       flexible="false"
       use_knot_distance="true"
       apply_no_radius="true"
       apply_with_radius="true"
       only_selected="false"
       hide_knots="false" /><inkscape:path-effect
       effect="fillet_chamfer"
       id="path-effect9"
       is_visible="true"
       lpeversion="1"
       nodesatellites_param="F,0,0,1,0,0,0,1 @ F,0,0,1,0,0,0,1 @ F,0,0,1,0,0,0,1 @ F,0,0,1,0,0,0,1 @ F,0,0,1,0,0,0,1 @ F,0,0,1,0,0,0,1 | F,0,0,1,0,0,0,1 @ F,0,0,1,0,9.99991,0,1 @ F,0,0,1,0,0,0,1 @ F,0,0,1,0,0,0,1"
       radius="0"
       unit="px"
       method="auto"
       mode="F"
       chamfer_steps="1"
       flexible="false"
       use_knot_distance="true"
       apply_no_radius="true"
       apply_with_radius="true"
       only_selected="false"
       hide_knots="false" /><inkscape:path-effect
       effect="fillet_chamfer"
       id="path-effect4"
       is_visible="true"
       lpeversion="1"
       nodesatellites_param="F,0,0,1,0,11.430208,0,1 @ F,0,0,1,0,0,0,1 @ F,0,0,1,0,0,0,1 @ F,0,0,1,0,0,0,1"
       radius="0"
       unit="px"
       method="auto"
       mode="F"
       chamfer_steps="1"
       flexible="false"
       use_knot_distance="true"
       apply_no_radius="true"
       apply_with_radius="true"
       only_selected="false"
       hide_knots="false" /><inkscape:path-effect
       effect="fillet_chamfer"
       id="path-effect3"
       is_visible="true"
       lpeversion="1"
       nodesatellites_param="F,0,0,1,0,0,0,1 @ F,0,0,1,0,11.430208,0,1 @ F,0,0,1,0,0,0,1 @ F,0,0,1,0,0,0,1"
       radius="0"
       unit="px"
       method="auto"
       mode="F"
       chamfer_steps="1"
       flexible="false"
       use_knot_distance="true"
       apply_no_radius="true"
       apply_with_radius="true"
       only_selected="false"
       hide_knots="false" /><inkscape:path-effect
       effect="fillet_chamfer"
       id="path-effect65-1"
       is_visible="true"
       lpeversion="1"
       nodesatellites_param="F,0,0,1,0,9.99991,0,1 @ F,0,0,1,0,0,0,1 @ F,0,0,1,0,0,0,1 @ F,0,0,1,0,0,0,1 | F,0,0,1,0,0,0,1 @ F,0,0,1,0,0,0,1 @ F,0,0,1,0,0,0,1 @ F,0,0,1,0,0,0,1 | F,0,0,1,0,0,0,1 @ F,0,0,1,0,0,0,1 @ F,0,0,1,0,0,0,1 @ F,0,0,1,0,0,0,1"
       radius="0"
       unit="px"
       method="auto"
       mode="F"
       chamfer_steps="1"
       flexible="false"
       use_knot_distance="true"
       apply_no_radius="true"
       apply_with_radius="true"
       only_selected="false"
       hide_knots="false" /><inkscape:path-effect
       effect="fillet_chamfer"
       id="path-effect14-2"
       is_visible="true"
       lpeversion="1"
       nodesatellites_param="F,0,0,1,0,0,0,1 @ F,0,0,1,0,0,0,1 @ F,0,0,1,0,0,0,1 @ F,0,1,1,0,9.99991,0,1 | F,0,0,1,0,9.99991,0,1 @ F,0,0,1,0,0,0,1 @ F,0,0,1,0,0,0,1 @ F,0,0,1,0,0,0,1"
       radius="0"
       unit="px"
       method="auto"
       mode="F"
       chamfer_steps="1"
       flexible="false"
       use_knot_distance="true"
       apply_no_radius="true"
       apply_with_radius="true"
       only_selected="false"
       hide_knots="false" /><inkscape:path-effect
       effect="fillet_chamfer"
       id="path-effect13-7"
       is_visible="true"
       lpeversion="1"
       nodesatellites_param="F,0,0,1,0,0,0,1 @ F,0,0,1,0,0,0,1 @ F,0,0,1,0,0,0,1 @ F,0,0,1,0,0,0,1 @ F,0,0,1,0,0,0,1 @ F,0,0,1,0,0,0,1 | F,0,0,1,0,0,0,1 @ F,0,0,1,0,9.99991,0,1 @ F,0,0,1,0,0,0,1 @ F,0,0,1,0,0,0,1"
       radius="0"
       unit="px"
       method="auto"
       mode="F"
       chamfer_steps="1"
       flexible="false"
       use_knot_distance="true"
       apply_no_radius="true"
       apply_with_radius="true"
       only_selected="false"
       hide_knots="false" /><inkscape:path-effect
       effect="fillet_chamfer"
       id="path-effect11-0"
       is_visible="true"
       lpeversion="1"
       nodesatellites_param="F,0,0,1,0,0,0,1 @ F,0,0,1,0,0,0,1 @ F,0,0,1,0,0,0,1 @ F,0,0,1,0,0,0,1 @ F,0,0,1,0,0,0,1 @ F,0,0,1,0,0,0,1 | F,0,0,1,0,0,0,1 @ F,0,0,1,0,9.99991,0,1 @ F,0,0,1,0,0,0,1 @ F,0,0,1,0,0,0,1"
       radius="0"
       unit="px"
       method="auto"
       mode="F"
       chamfer_steps="1"
       flexible="false"
       use_knot_distance="true"
       apply_no_radius="true"
       apply_with_radius="true"
       only_selected="false"
       hide_knots="false" /><inkscape:path-effect
       effect="fillet_chamfer"
       id="path-effect9-9"
       is_visible="true"
       lpeversion="1"
       nodesatellites_param="F,0,0,1,0,0,0,1 @ F,0,0,1,0,0,0,1 @ F,0,0,1,0,0,0,1 @ F,0,0,1,0,0,0,1 @ F,0,0,1,0,0,0,1 @ F,0,0,1,0,0,0,1 | F,0,0,1,0,0,0,1 @ F,0,0,1,0,9.99991,0,1 @ F,0,0,1,0,0,0,1 @ F,0,0,1,0,0,0,1"
       radius="0"
       unit="px"
       method="auto"
       mode="F"
       chamfer_steps="1"
       flexible="false"
       use_knot_distance="true"
       apply_no_radius="true"
       apply_with_radius="true"
       only_selected="false"
       hide_knots="false" /><inkscape:path-effect
       effect="fillet_chamfer"
       id="path-effect4-3"
       is_visible="true"
       lpeversion="1"
       nodesatellites_param="F,0,0,1,0,11.430208,0,1 @ F,0,0,1,0,0,0,1 @ F,0,0,1,0,0,0,1 @ F,0,0,1,0,0,0,1"
       radius="0"
       unit="px"
       method="auto"
       mode="F"
       chamfer_steps="1"
       flexible="false"
       use_knot_distance="true"
       apply_no_radius="true"
       apply_with_radius="true"
       only_selected="false"
       hide_knots="false" /><inkscape:path-effect
       effect="fillet_chamfer"
       id="path-effect3-6"
       is_visible="true"
       lpeversion="1"
       nodesatellites_param="F,0,0,1,0,0,0,1 @ F,0,0,1,0,11.430208,0,1 @ F,0,0,1,0,0,0,1 @ F,0,0,1,0,0,0,1"
       radius="0"
       unit="px"
       method="auto"
       mode="F"
       chamfer_steps="1"
       flexible="false"
       use_knot_distance="true"
       apply_no_radius="true"
       apply_with_radius="true"
       only_selected="false"
       hide_knots="false" /><inkscape:path-effect
       effect="fillet_chamfer"
       id="path-effect65-8"
       is_visible="true"
       lpeversion="1"
       nodesatellites_param="F,0,0,1,0,9.99991,0,1 @ F,0,0,1,0,0,0,1 @ F,0,0,1,0,0,0,1 @ F,0,0,1,0,0,0,1 | F,0,0,1,0,0,0,1 @ F,0,0,1,0,0,0,1 @ F,0,0,1,0,0,0,1 @ F,0,0,1,0,0,0,1 | F,0,0,1,0,0,0,1 @ F,0,0,1,0,0,0,1 @ F,0,0,1,0,0,0,1 @ F,0,0,1,0,0,0,1"
       radius="0"
       unit="px"
       method="auto"
       mode="F"
       chamfer_steps="1"
       flexible="false"
       use_knot_distance="true"
       apply_no_radius="true"
       apply_with_radius="true"
       only_selected="false"
       hide_knots="false" /><inkscape:path-effect
       effect="fillet_chamfer"
       id="path-effect14-4"
       is_visible="true"
       lpeversion="1"
       nodesatellites_param="F,0,0,1,0,0,0,1 @ F,0,0,1,0,0,0,1 @ F,0,0,1,0,0,0,1 @ F,0,1,1,0,9.99991,0,1 | F,0,0,1,0,9.99991,0,1 @ F,0,0,1,0,0,0,1 @ F,0,0,1,0,0,0,1 @ F,0,0,1,0,0,0,1"
       radius="0"
       unit="px"
       method="auto"
       mode="F"
       chamfer_steps="1"
       flexible="false"
       use_knot_distance="true"
       apply_no_radius="true"
       apply_with_radius="true"
       only_selected="false"
       hide_knots="false" /><inkscape:path-effect
       effect="fillet_chamfer"
       id="path-effect13-5"
       is_visible="true"
       lpeversion="1"
       nodesatellites_param="F,0,0,1,0,0,0,1 @ F,0,0,1,0,0,0,1 @ F,0,0,1,0,0,0,1 @ F,0,0,1,0,0,0,1 @ F,0,0,1,0,0,0,1 @ F,0,0,1,0,0,0,1 | F,0,0,1,0,0,0,1 @ F,0,0,1,0,9.99991,0,1 @ F,0,0,1,0,0,0,1 @ F,0,0,1,0,0,0,1"
       radius="0"
       unit="px"
       method="auto"
       mode="F"
       chamfer_steps="1"
       flexible="false"
       use_knot_distance="true"
       apply_no_radius="true"
       apply_with_radius="true"
       only_selected="false"
       hide_knots="false" /><inkscape:path-effect
       effect="fillet_chamfer"
       id="path-effect11-03"
       is_visible="true"
       lpeversion="1"
       nodesatellites_param="F,0,0,1,0,0,0,1 @ F,0,0,1,0,0,0,1 @ F,0,0,1,0,0,0,1 @ F,0,0,1,0,0,0,1 @ F,0,0,1,0,0,0,1 @ F,0,0,1,0,0,0,1 | F,0,0,1,0,0,0,1 @ F,0,0,1,0,9.99991,0,1 @ F,0,0,1,0,0,0,1 @ F,0,0,1,0,0,0,1"
       radius="0"
       unit="px"
       method="auto"
       mode="F"
       chamfer_steps="1"
       flexible="false"
       use_knot_distance="true"
       apply_no_radius="true"
       apply_with_radius="true"
       only_selected="false"
       hide_knots="false" /><inkscape:path-effect
       effect="fillet_chamfer"
       id="path-effect9-6"
       is_visible="true"
       lpeversion="1"
       nodesatellites_param="F,0,0,1,0,0,0,1 @ F,0,0,1,0,0,0,1 @ F,0,0,1,0,0,0,1 @ F,0,0,1,0,0,0,1 @ F,0,0,1,0,0,0,1 @ F,0,0,1,0,0,0,1 | F,0,0,1,0,0,0,1 @ F,0,0,1,0,9.99991,0,1 @ F,0,0,1,0,0,0,1 @ F,0,0,1,0,0,0,1"
       radius="0"
       unit="px"
       method="auto"
       mode="F"
       chamfer_steps="1"
       flexible="false"
       use_knot_distance="true"
       apply_no_radius="true"
       apply_with_radius="true"
       only_selected="false"
       hide_knots="false" /><inkscape:path-effect
       effect="fillet_chamfer"
       id="path-effect4-1"
       is_visible="true"
       lpeversion="1"
       nodesatellites_param="F,0,0,1,0,11.430208,0,1 @ F,0,0,1,0,0,0,1 @ F,0,0,1,0,0,0,1 @ F,0,0,1,0,0,0,1"
       radius="0"
       unit="px"
       method="auto"
       mode="F"
       chamfer_steps="1"
       flexible="false"
       use_knot_distance="true"
       apply_no_radius="true"
       apply_with_radius="true"
       only_selected="false"
       hide_knots="false" /><inkscape:path-effect
       effect="fillet_chamfer"
       id="path-effect3-0"
       is_visible="true"
       lpeversion="1"
       nodesatellites_param="F,0,0,1,0,0,0,1 @ F,0,0,1,0,11.430208,0,1 @ F,0,0,1,0,0,0,1 @ F,0,0,1,0,0,0,1"
       radius="0"
       unit="px"
       method="auto"
       mode="F"
       chamfer_steps="1"
       flexible="false"
       use_knot_distance="true"
       apply_no_radius="true"
       apply_with_radius="true"
       only_selected="false"
       hide_knots="false" /><clipPath
       clipPathUnits="userSpaceOnUse"
       id="clipPath180"><rect
         style="fill:#ffffff;fill-opacity:1;fill-rule:evenodd;stroke:none;stroke-width:0.500002;stroke-dasharray:none;stroke-opacity:1"
         id="rect181"
         width="944.47827"
         height="531.26898"
         x="2838.5586"
         y="3332.0281" /></clipPath></defs><g
     inkscape:label="Layer 1"
     id="layer1"
     transform="matrix(1.7223152,0,0,1.7223152,-2002.3098,-2875.6668)"
     style="stroke-width:2.19445"><path
       id="path184"
       style="font-size:35.963px;line-height:1.25;font-family:PS;-inkscape-font-specification:PS;text-align:center;letter-spacing:0px;direction:rtl;text-anchor:middle;fill:#ffffff;stroke-width:0.580615"
       d="m 1284.7958,1817.0469 c -2.2376,0 -4.1297,1.0852 -5.6753,3.2536 l -32.9434,46.3696 h 8.3747 l 6.6091,-9.2739 h 45.124 l 6.5746,9.2739 h 12.8385 l -33.0119,-46.4732 c -1.5227,-2.0995 -3.3914,-3.15 -5.6061,-3.15 z m 48.6886,0 v 35.7809 c 0,3.9218 1.3727,7.2095 4.1178,9.8626 2.7455,2.6531 6.5283,3.9797 11.3497,3.9797 h 57.7891 v -5.7789 h -52.9783 c -2.8147,0 -5.03,-0.7847 -6.6447,-2.3534 -1.5919,-1.5687 -2.3873,-3.4722 -2.3873,-5.71 v -35.7809 z m 85.369,0 v 49.6232 h 11.2458 v -22.9423 l 46.6116,22.9423 h 15.3996 l -49.0346,-24.811 49.0346,-24.8122 h -15.3996 l -46.6116,23.2886 v -23.2886 z m 120.5268,0 c -2.2378,0 -4.1297,1.0852 -5.6753,3.2536 l -32.9436,46.3696 h 8.3741 l 6.6099,-9.2739 h 45.1241 l 6.5746,9.2739 h 12.8382 l -33.0129,-46.4732 c -1.5224,-2.0995 -3.3914,-3.15 -5.6061,-3.15 z m 67.6165,0 c -4.8215,0 -8.6052,1.3267 -11.3506,3.9797 -2.7452,2.6531 -4.1173,5.9412 -4.1173,9.8627 v 35.7808 h 11.2458 v -21.9046 h 62.0112 v -5.8137 h -62.0112 v -8.0625 c 0,-2.2376 0.7962,-4.141 2.3881,-5.7098 1.6148,-1.5687 3.8292,-2.3534 6.6438,-2.3534 h 52.9793 v -5.7792 z m 87.0993,0 c -4.8214,0 -8.6052,1.3267 -11.3503,3.9797 -2.7454,2.6531 -4.1184,5.9412 -4.1184,9.8627 v 35.7808 h 11.2466 v -21.9046 h 62.0115 v -5.8137 h -62.0115 v -8.0625 c 0,-2.2376 0.7963,-4.141 2.3882,-5.7098 1.6147,-1.5687 3.8288,-2.3534 6.6437,-2.3534 h 52.9796 v -5.7792 z m 98.1375,0 c -2.2376,0 -4.1298,1.0852 -5.6753,3.2536 l -32.9425,46.3696 h 8.3738 l 6.6091,-9.2739 h 45.124 l 6.5755,9.2739 h 12.8385 l -33.0131,-46.4732 c -1.5224,-2.0995 -3.3911,-3.15 -5.6058,-3.15 z m 63.4117,0.03 a 13.859029,13.859029 0 0 0 -13.8589,13.8415 13.859029,13.859029 0 0 0 13.8589,13.8414 h 39.917 a 8.2358141,8.2358141 0 0 1 8.2335,8.0623 8.2358141,8.2358141 0 0 1 -8.2335,8.0622 h -53.7747 v 5.7793 h 60.6965 v -0.061 a 13.859029,13.859029 0 0 0 12.5602,-13.7802 13.859029,13.859029 0 0 0 -12.5602,-13.7805 v -0.061 h -41.2157 a 8.2358141,8.2358141 0 0 1 -8.2332,-8.0622 8.2358141,8.2358141 0 0 1 8.2332,-8.0623 h 5.6317 a 13.859029,13.859029 0 0 0 0,-9e-4 h 48.1381 v -5.7783 z m -571.8871,9.5666 c 0.4384,0 0.8764,0.2988 1.3148,0.899 l 17.0939,24.0852 h -36.8878 l 17.0597,-23.9812 c 0.4841,-0.6692 0.9579,-1.003 1.4194,-1.003 z m 254.5835,0 c 0.4381,0 0.8774,0.2988 1.3154,0.899 l 17.0942,24.0852 h -36.8887 l 17.0604,-23.9812 c 0.4847,-0.6692 0.9572,-1.003 1.4187,-1.003 z m 252.8542,0 c 0.4384,0 0.8764,0.2988 1.3148,0.899 l 17.0948,24.0852 h -36.8887 l 17.0606,-23.9812 c 0.4844,-0.6692 0.957,-1.003 1.4185,-1.003 z" /><path
       id="path185"
       style="fill:#b3b3b3;fill-opacity:1;fill-rule:evenodd;stroke:none;stroke-width:4.38891;stroke-linecap:round"
       d="m 1311.7779,1884.8294 a 4.6196207,4.6196207 0 0 0 -3.766,1.944 v 10e-4 l -18.1987,25.6106 h 1.8495 l 4.8428,-6.8157 h 28.7606 l 4.8644,6.8148 h 3.6112 l -18.198,-25.6107 a 4.6196207,4.6196207 0 0 0 -3.7658,-1.944 z m 160.3118,0.1311 -40.4602,0.031 v 1.4889 h 18.762 v 25.917 h 2.9359 v -25.9173 h 18.7623 z m 288.1604,0 -40.4599,0.031 v 1.4889 h 18.7628 v 25.917 h 2.936 v -25.9173 h 18.7611 z m -412.9666,0.031 a 7.6444429,7.6444429 0 0 0 -7.6437,7.6446 v 5.3241 h -9e-4 v 1.4889 h 9e-4 v 12.9492 h 2.9351 v -12.9492 h 37.5239 v -1.5084 l -37.5239,0.031 v -4.5702 a 6.8893231,6.8893231 0 0 1 6.8888,-6.8892 h 30.6351 v -1.5081 z m 47.8402,0 c -4.2221,0 -7.6449,3.4228 -7.6449,7.6446 v 5.322 h 2.9347 v -4.5693 c 0,-3.8048 3.0857,-6.8892 6.8905,-6.8892 h 30.635 v -1.5081 z m 77.5809,0 17.6581,17.4463 v 9.9605 h 2.9351 v -10.9973 l 17.3722,-16.4095 h -2.5492 l -15.7943,15.2569 -14.8752,-15.2569 z m -188.2947,0.031 -30.9997,0.03 c -3.9944,0 -7.2337,3.2246 -7.2331,7.2029 -6e-4,3.9779 3.2387,7.2025 7.2331,7.2025 l 5.8024,0.031 h 17.3234 c 2.8909,0 4.9382,2.3577 4.9379,5.7162 3e-4,3.3584 -2.047,5.7161 -4.9379,5.7161 h -30.358 v 1.5072 l 30.9982,-0.031 c 3.9947,0 7.2337,-3.225 7.2337,-7.2029 0,-3.9779 -3.239,-7.2029 -7.2337,-7.2029 l -17.9636,-0.03 h -5.1616 c -2.8912,0 -4.9388,-2.3573 -4.9382,-5.7158 -6e-4,-3.3588 2.047,-5.7161 4.9382,-5.7161 h 30.3589 z m 283.8699,0 -30.9993,0.03 c -3.9947,0 -7.2331,3.2246 -7.2328,7.2029 -3e-4,3.9779 3.2381,7.2025 7.2328,7.2025 l 5.8024,0.031 h 17.324 c 2.8912,0 4.9373,2.3577 4.937,5.7162 3e-4,3.3584 -2.0458,5.7161 -4.937,5.7161 h -30.3592 v 1.5072 l 31,-0.031 c 3.9947,0 7.2321,-3.225 7.2321,-7.2029 0,-3.9779 -3.2374,-7.2029 -7.2321,-7.2029 l -17.9648,-0.03 h -5.1623 c -2.8908,0 -4.9378,-2.3573 -4.9378,-5.7158 0,-3.3588 2.047,-5.7161 4.9378,-5.7161 h 30.3592 z m 16.1632,0 c -4.2218,0 -7.6446,3.4228 -7.6446,7.6446 v 6.813 5.3046 c 0,4.2218 3.4228,7.6446 7.6446,7.6446 h 8.8954 16.2753 c 4.2221,0 7.6446,-3.4228 7.6446,-7.6446 v -5.3046 -6.813 c 0,-4.2218 -3.4225,-7.6446 -7.6446,-7.6446 h -17.0545 z m 43.3148,0 v 19.7622 c 0,4.2218 3.4228,7.6446 7.6446,7.6446 h 32.8153 v -1.5081 h -30.6351 c -3.8047,0 -6.8901,-3.0844 -6.8901,-6.8892 v -19.0095 z m 46.512,0 v 19.7622 c 0,4.2218 3.4228,7.6446 7.6449,7.6446 h 8.8951 16.2753 c 4.2221,0 7.6446,-3.4228 7.6446,-7.6446 v -19.7622 h -2.9356 v 19.0095 c 0,3.8048 -3.0844,6.8892 -6.8892,6.8892 h -14.0951 -6.7148 c -3.8051,0 -6.8892,-3.0844 -6.8892,-6.8892 v -19.0095 z m 112.1326,0 c -4.2218,0 -7.6446,3.4228 -7.6446,7.6446 v 6.813 5.3046 c 0,4.2218 3.4228,7.6446 7.6446,7.6446 h 8.8942 16.2762 c 4.2221,0 7.6449,-3.4228 7.6449,-7.6446 v -5.3046 -6.813 c 0,-4.2218 -3.4228,-7.6446 -7.6449,-7.6446 h -17.0542 z m 43.3358,0 a 1.4607326,1.4607326 0 0 0 -1.4602,1.4614 v 0 25.9454 h 2.936 v -24.7223 a 0.42623462,0.42623462 0 0 1 0.678,-0.3442 l 33.0772,24.2032 a 4.4699474,4.4699474 0 0 0 2.6396,0.8624 h 0.031 a 1.4590161,1.4590161 0 0 0 1.4593,-1.4603 l -0.031,-25.9465 h -2.936 l 0.031,24.6979 a 0.42580095,0.42580095 0 0 1 -0.677,0.3442 l -33.076,-24.1797 a 4.4732848,4.4732848 0 0 0 -2.6409,-0.8624 z m 85.306,0 -30.9994,0.03 c -3.9947,0 -7.2324,3.2246 -7.2321,7.2029 -3e-4,3.9779 3.2374,7.2025 7.2321,7.2025 l 5.8024,0.031 h 17.3244 c 2.8908,0 4.9369,2.3577 4.9369,5.7162 0,3.3584 -2.0461,5.7161 -4.9369,5.7161 h -30.3589 v 1.5072 l 30.9984,-0.031 c 3.9947,0 7.2334,-3.225 7.2331,-7.2029 3e-4,-3.9779 -3.2384,-7.2029 -7.2331,-7.2029 l -17.9639,-0.03 h -5.1619 c -2.8908,0 -4.9382,-2.3573 -4.9379,-5.7158 -3e-4,-3.3588 2.0471,-5.7161 4.9379,-5.7161 h 30.3589 z m -147.7479,0.7158 v 26.6718 h 2.9347 v -26.6727 z m -180.673,0.7923 h 5.9359 14.874 c 3.8054,0 6.8892,3.0844 6.8892,6.8892 v 6.0603 4.5519 c 0,3.8048 -3.0838,6.8892 -6.8892,6.8892 h -14.0948 -6.7151 c -3.8048,0 -6.8892,-3.0844 -6.8892,-6.8892 v -4.5519 -6.0603 c 0,-3.8048 3.0844,-6.8892 6.8892,-6.8892 z m 201.9594,0 h 5.9359 14.874 c 3.8051,0 6.8892,3.0844 6.8892,6.8892 v 6.0603 4.5519 c 0,3.8048 -3.0841,6.8892 -6.8892,6.8892 h -14.096 -6.7139 c -3.8048,0 -6.8901,-3.0844 -6.8901,-6.8892 v -4.5519 -6.0603 c 0,-3.8048 3.0853,-6.8892 6.8901,-6.8892 z m -477.7294,0.052 a 1.6260652,1.6260652 0 0 1 1.3258,0.6804 l 12.0115,16.8271 -26.6261,0.031 11.9649,-16.8372 a 1.6260652,1.6260652 0 0 1 1.3239,-0.6843 z m 117.0848,11.371 -40.4593,0.031 v 1.4889 5.3046 c 0,4.2218 3.4228,7.6446 7.6449,7.6446 h 32.8153 v -1.5081 h -30.635 c -3.8048,0 -6.8905,-3.0841 -6.8905,-6.8892 v -4.5519 h 37.5246 z" /></g></svg>
