<?xml version="1.0" encoding="UTF-8" standalone="no"?>
<!-- Created with Inkscape (http://www.inkscape.org/) -->

<svg
   width="176.38889mm"
   height="175.74295mm"
   viewBox="0 0 176.38889 175.74295"
   version="1.1"
   id="svg1"
   inkscape:version="1.4.2 (ebf0e94, 2025-05-08)"
   sodipodi:docname="tiktok-logo.svg"
   xmlns:inkscape="http://www.inkscape.org/namespaces/inkscape"
   xmlns:sodipodi="http://sodipodi.sourceforge.net/DTD/sodipodi-0.dtd"
   xmlns="http://www.w3.org/2000/svg"
   xmlns:svg="http://www.w3.org/2000/svg">
  <sodipodi:namedview
     id="namedview1"
     pagecolor="#ffffff"
     bordercolor="#000000"
     borderopacity="0.25"
     inkscape:showpageshadow="2"
     inkscape:pageopacity="0.0"
     inkscape:pagecheckerboard="0"
     inkscape:deskcolor="#d1d1d1"
     inkscape:document-units="mm"
     inkscape:zoom="0.73584456"
     inkscape:cx="339.06617"
     inkscape:cy="765.78673"
     inkscape:window-width="1920"
     inkscape:window-height="1048"
     inkscape:window-x="0"
     inkscape:window-y="0"
     inkscape:window-maximized="1"
     inkscape:current-layer="layer1" />
  <defs
     id="defs1">
    <clipPath
       clipPathUnits="userSpaceOnUse"
       id="clipPath35">
      <path
         d="M 0,1300 H 1300 V 0 H 0 Z"
         transform="translate(-599.66271,-888.81912)"
         id="path35" />
    </clipPath>
    <clipPath
       clipPathUnits="userSpaceOnUse"
       id="clipPath37">
      <path
         d="M 0,1300 H 1300 V 0 H 0 Z"
         transform="translate(-604.03282,-619.28742)"
         id="path37" />
    </clipPath>
    <clipPath
       clipPathUnits="userSpaceOnUse"
       id="clipPath39">
      <path
         d="M 0,1300 H 1300 V 0 H 0 Z"
         transform="translate(-899.80132,-966.27762)"
         id="path39" />
    </clipPath>
    <clipPath
       clipPathUnits="userSpaceOnUse"
       id="clipPath41">
      <path
         d="M 0,1300 H 1300 V 0 H 0 Z"
         transform="translate(-823.59232,-1012.5549)"
         id="path41" />
    </clipPath>
    <clipPath
       clipPathUnits="userSpaceOnUse"
       id="clipPath43">
      <path
         d="M 0,1300 H 1300 V 0 H 0 Z"
         transform="translate(-574.71254,-815.21312)"
         id="path43" />
    </clipPath>
    <clipPath
       clipPathUnits="userSpaceOnUse"
       id="clipPath45">
      <path
         d="M 0,1300 H 1300 V 0 H 0 Z"
         transform="translate(-899.80132,-967.48323)"
         id="path45" />
    </clipPath>
    <clipPath
       clipPathUnits="userSpaceOnUse"
       id="clipPath47">
      <path
         d="M 0,1300 H 1300 V 0 H 0 Z"
         transform="translate(-759.85702,-729.88892)"
         id="path47" />
    </clipPath>
  </defs>
  <g
     inkscape:label="Layer 1"
     inkscape:groupmode="layer"
     id="layer1"
     transform="translate(334.80045,-60.325)">
    <g
       id="g197"
       transform="matrix(0.21320707,0,0,0.21320707,-807.86509,13.354131)"
       style="stroke-width:1.24097">
      <path
         id="path34"
         d="m 0,0 v 24.409 c -8.173,1.112 -16.477,1.808 -24.95,1.808 -102.09,0 -185.144,-83.057 -185.144,-185.147 0,-62.638 31.295,-118.07 79.04,-151.59 -30.815,33.081 -49.102,77.396 -49.102,126.065 C -180.156,-83.831 -100.072,-2.338 0,0"
         style="fill:#25f4ee;fill-opacity:1;fill-rule:nonzero;stroke:none;stroke-width:1.24097"
         transform="matrix(1.3333333,0,0,-1.3333333,2552.8836,548.2412)"
         clip-path="url(#clipPath35)" />
      <path
         id="path36"
         d="m 0,0 c 45.549,0 83.236,36.753 84.928,81.896 l 0.384,402.549 73,-0.027 -0.113,0.605 c -1.533,8.282 -2.375,16.805 -2.375,25.525 H 55.235 L 55.073,107.421 C 53.383,62.278 16.229,26.046 -29.32,26.046 c -14.157,0 -27.487,3.539 -39.222,9.715 C -53.174,14.463 -28.211,0 0,0"
         style="fill:#25f4ee;fill-opacity:1;fill-rule:nonzero;stroke:none;stroke-width:1.24097"
         transform="matrix(1.3333333,0,0,-1.3333333,2558.7104,907.6168)"
         clip-path="url(#clipPath37)" />
      <path
         id="path38"
         d="m 0,0 v 23.616 c -28.096,0 -54.263,8.352 -76.209,22.661 C -56.669,23.834 -30.126,6.45 0,0"
         style="fill:#25f4ee;fill-opacity:1;fill-rule:nonzero;stroke:none;stroke-width:1.24097"
         transform="matrix(1.3333333,0,0,-1.3333333,2953.0684,444.9632)"
         clip-path="url(#clipPath39)" />
      <path
         id="path40"
         d="M 0,0 C -21.408,24.587 -34.415,56.671 -34.415,91.755 H -61.82 C -54.725,53.429 -31.517,20.549 0,0"
         style="fill:#fe2c55;fill-opacity:1;fill-rule:nonzero;stroke:none;stroke-width:1.24097"
         transform="matrix(1.3333333,0,0,-1.3333333,2851.4564,383.26013)"
         clip-path="url(#clipPath41)" />
      <path
         id="path42"
         d="m 0,0 c -46.622,0 -85.115,-38.699 -85.115,-85.324 0,-32.466 18.979,-60.677 45.893,-74.841 -10.03,13.9 -16.012,30.904 -16.012,49.316 0,46.625 37.933,84.558 84.554,84.558 8.704,0 17.053,-1.436 24.951,-3.91 V 72.49 c -8.172,1.112 -16.477,1.808 -24.951,1.808 -1.466,0 -2.913,-0.077 -4.37,-0.111 L 24.562,74.168 24.29,-3.564 C 16.393,-1.09 8.703,0 0,0"
         style="fill:#fe2c55;fill-opacity:1;fill-rule:nonzero;stroke:none;stroke-width:1.24097"
         transform="matrix(1.3333333,0,0,-1.3333333,2519.6167,646.38253)"
         clip-path="url(#clipPath43)" />
      <path
         id="path44"
         d="m 0,0 -0.468,0.091 -0.023,-77.668 c -52.158,0 -100.619,17.167 -140.071,45.484 l 0.031,-205.501 c 0,-102.091 -82.468,-184.631 -184.558,-184.631 -39.452,0 -76.031,11.93 -106.103,33.041 33.824,-36.31 82.003,-59.079 135.423,-59.079 102.091,0 185.145,83.054 185.145,185.144 v 204.418 c 39.452,-28.316 87.786,-45.003 139.944,-45.003 V -3.114 C 19.265,-3.114 9.461,-2.025 0,0"
         style="fill:#fe2c55;fill-opacity:1;fill-rule:nonzero;stroke:none;stroke-width:1.24097"
         transform="matrix(1.3333333,0,0,-1.3333333,2953.0684,443.35573)"
         clip-path="url(#clipPath45)" />
      <path
         id="path46"
         d="m 0,0 v 204.419 c 39.452,-28.317 87.787,-45.003 139.944,-45.003 v 78.178 c -30.126,6.449 -56.669,22.629 -76.209,45.072 -31.516,20.549 -54.264,53.429 -61.36,91.755 h -73.644 l -0.162,-403.127 c -1.691,-45.142 -38.844,-81.375 -84.393,-81.375 -28.211,0 -53.174,13.942 -68.542,35.241 -26.914,14.163 -45.333,42.374 -45.333,74.84 0,46.625 37.932,84.558 84.554,84.558 8.704,0 17.052,-1.436 24.951,-3.91 v 78.863 c -100.073,-2.338 -180.774,-84.412 -180.774,-185.036 0,-48.669 18.904,-92.984 49.72,-126.064 30.072,-21.112 66.651,-33.556 106.103,-33.556 C -83.055,-185.145 0,-102.09 0,0"
         style="fill:#ffffff;fill-opacity:1;fill-rule:nonzero;stroke:none;stroke-width:1.24097"
         transform="matrix(1.3333333,0,0,-1.3333333,2766.476,760.14813)"
         clip-path="url(#clipPath47)" />
    </g>
  </g>
</svg>
