<?xml version="1.0" encoding="UTF-8" standalone="no"?>
<!-- Created with Inkscape (http://www.inkscape.org/) -->

<svg
   width="176.38889mm"
   height="175.74295mm"
   viewBox="0 0 176.38889 175.74295"
   version="1.1"
   id="svg1"
   inkscape:version="1.4.2 (ebf0e94, 2025-05-08)"
   sodipodi:docname="vimeo-logo.svg"
   xml:space="preserve"
   xmlns:inkscape="http://www.inkscape.org/namespaces/inkscape"
   xmlns:sodipodi="http://sodipodi.sourceforge.net/DTD/sodipodi-0.dtd"
   xmlns="http://www.w3.org/2000/svg"
   xmlns:svg="http://www.w3.org/2000/svg"><sodipodi:namedview
     id="namedview1"
     pagecolor="#ffffff"
     bordercolor="#000000"
     borderopacity="0.25"
     inkscape:showpageshadow="2"
     inkscape:pageopacity="0.0"
     inkscape:pagecheckerboard="0"
     inkscape:deskcolor="#d1d1d1"
     inkscape:document-units="mm"
     inkscape:zoom="1.0406414"
     inkscape:cx="164.80221"
     inkscape:cy="321.43639"
     inkscape:window-width="1920"
     inkscape:window-height="1048"
     inkscape:window-x="0"
     inkscape:window-y="0"
     inkscape:window-maximized="1"
     inkscape:current-layer="layer1" /><defs
     id="defs1" /><g
     inkscape:label="Layer 1"
     inkscape:groupmode="layer"
     id="layer1"
     transform="translate(334.80045,-60.325)"><path
       d="m -158.49694,107.19224 c -0.78449,17.17176 -12.78289,40.69572 -35.97764,70.54833 -23.97751,31.17982 -44.26878,46.77573 -60.87381,46.77573 -10.27596,0 -18.97565,-9.49361 -26.08707,-28.49197 -4.7408,-17.41011 -9.4936,-34.80905 -14.2344,-52.21957 -5.27409,-18.9868 -10.93399,-28.49155 -16.99084,-28.49155 -1.31606,0 -5.94326,2.77787 -13.84861,8.31387 l -8.29115,-10.69606 c 8.69925,-7.64427 17.28535,-15.300547 25.73554,-22.96797 11.6143,-10.02646 20.32514,-15.31169 26.14365,-15.844971 13.72429,-1.316057 22.17405,8.075526 25.34974,28.162751 3.42517,21.6862 5.79621,35.17213 7.12298,40.44622 3.95674,17.98882 8.31388,26.97186 13.06626,26.97186 3.69953,0 9.24411,-5.84124 16.63931,-17.50097 7.38365,-11.6709 11.3421,-20.55191 11.87538,-26.64263 1.05456,-10.07191 -2.90219,-15.11922 -11.87538,-15.11922 -4.23108,0 -8.58608,0.96453 -13.05509,2.8936 8.66539,-28.400653 25.22497,-42.204245 49.67919,-41.421471 18.12471,0.531567 26.66535,12.29462 25.62194,35.285741"
       id="path4"
       style="fill:#1ab7ea;stroke-width:0.264583" /></g></svg>
