<?xml version="1.0" encoding="UTF-8" standalone="no"?>
<!-- Created with Inkscape (http://www.inkscape.org/) -->

<svg
   width="176.38889mm"
   height="175.74295mm"
   viewBox="0 0 176.38889 175.74295"
   version="1.1"
   id="svg1"
   inkscape:version="1.4.2 (ebf0e94, 2025-05-08)"
   sodipodi:docname="youtube-logo.svg"
   xml:space="preserve"
   xmlns:inkscape="http://www.inkscape.org/namespaces/inkscape"
   xmlns:sodipodi="http://sodipodi.sourceforge.net/DTD/sodipodi-0.dtd"
   xmlns="http://www.w3.org/2000/svg"
   xmlns:svg="http://www.w3.org/2000/svg"><sodipodi:namedview
     id="namedview1"
     pagecolor="#ffffff"
     bordercolor="#000000"
     borderopacity="0.25"
     inkscape:showpageshadow="2"
     inkscape:pageopacity="0.0"
     inkscape:pagecheckerboard="0"
     inkscape:deskcolor="#d1d1d1"
     inkscape:document-units="mm"
     inkscape:zoom="0.52032068"
     inkscape:cx="368.04226"
     inkscape:cy="473.74631"
     inkscape:window-width="1920"
     inkscape:window-height="1048"
     inkscape:window-x="0"
     inkscape:window-y="0"
     inkscape:window-maximized="1"
     inkscape:current-layer="layer1" /><defs
     id="defs1" /><g
     inkscape:label="Layer 1"
     inkscape:groupmode="layer"
     id="layer1"
     transform="translate(334.80045,-60.325)"><g
       style="display:block;stroke-width:0.0428552"
       id="g3"
       transform="matrix(6.1738978,0,0,6.1738978,-334.80044,86.457495)"><g
         id="g2"
         style="stroke-width:0.0428552"><path
           id="path1-3"
           style="stroke-width:0.0428552;fill:#ff0000;fill-opacity:1"
           d="M 14.284993 -3.8865954e-05 C 14.284993 -3.8865954e-05 5.350425 -2.7248626e-05 3.123235 0.59733853 C 1.893235 0.92659553 0.92663277 1.8932715 0.59737577 3.1232815 C 9.9976052e-06 5.3504615 -1.6197223e-06 10.000027 -1.6197223e-06 10.000027 C -1.6197223e-06 10.000027 9.9976052e-06 14.649572 0.59737577 16.876772 C 0.92663277 18.106772 1.893235 19.073432 3.123235 19.402632 C 5.350425 20.000032 14.284993 20.000009 14.284993 20.000009 C 14.284993 20.000009 23.219736 20.000032 25.446836 19.402632 C 26.676836 19.073432 27.643495 18.106772 27.972695 16.876772 C 28.570095 14.649572 28.570072 10.000027 28.570072 10.000027 C 28.570072 10.000027 28.567695 5.3504615 27.972695 3.1232815 C 27.643495 1.8932715 26.676836 0.92659553 25.446836 0.59733853 C 23.219736 -2.7248626e-05 14.284993 -3.8865954e-05 14.284993 -3.8865954e-05 z M 11.425333 5.7153486 L 18.847728 10.000362 L 11.425333 14.285375 L 11.425333 5.7153486 z " /></g></g></g></svg>
